<?xml version="1.0" encoding="UTF-8" standalone="no"?>
<!-- Created with Inkscape (http://www.inkscape.org/) -->

<svg
   xmlns:dc="http://purl.org/dc/elements/1.1/"
   xmlns:cc="http://creativecommons.org/ns#"
   xmlns:rdf="http://www.w3.org/1999/02/22-rdf-syntax-ns#"
   xmlns:svg="http://www.w3.org/2000/svg"
   xmlns="http://www.w3.org/2000/svg"
   xmlns:sodipodi="http://sodipodi.sourceforge.net/DTD/sodipodi-0.dtd"
   xmlns:inkscape="http://www.inkscape.org/namespaces/inkscape"
   width="1813.7456"
   height="309.41452"
   id="svg2"
   version="1.1"
   inkscape:version="0.48.4 r9939"
   sodipodi:docname="Zeichnung.svg">
  <defs
     id="defs4" />
  <sodipodi:namedview
     id="base"
     pagecolor="#ffffff"
     bordercolor="#666666"
     borderopacity="1.0"
     inkscape:pageopacity="0.0"
     inkscape:pageshadow="2"
     inkscape:zoom="0.49497475"
     inkscape:cx="447.42947"
     inkscape:cy="210.14926"
     inkscape:document-units="px"
     inkscape:current-layer="layer1"
     showgrid="false"
     fit-margin-top="0"
     fit-margin-left="0"
     fit-margin-right="0"
     fit-margin-bottom="100"
     inkscape:window-width="1855"
     inkscape:window-height="1056"
     inkscape:window-x="65"
     inkscape:window-y="24"
     inkscape:window-maximized="1" />
  <metadata
     id="metadata7">
    <rdf:RDF>
      <cc:Work
         rdf:about="">
        <dc:format>image/svg+xml</dc:format>
        <dc:type
           rdf:resource="http://purl.org/dc/dcmitype/StillImage" />
        <dc:title></dc:title>
      </cc:Work>
    </rdf:RDF>
  </metadata>
  <g
     inkscape:label="Ebene 1"
     inkscape:groupmode="layer"
     id="layer1"
     transform="translate(557.30182,-735.80479)">
    <path
       style="fill:#000000;fill-opacity:0.72911395"
       d="m 1108.6429,937.44563 c 0,-2.66423 -0.5625,-5.58465 -1.25,-6.48983 -1.6659,-2.1934 -10.3729,-5.81842 -12.2475,-5.09907 -0.818,0.3139 -3.5444,3.66507 -6.0586,7.44704 -5.4018,8.12546 -6.0204,8.6088 -8.3357,6.51351 -2.5878,-2.34196 -3.6991,-1.9959 -6.1082,1.90204 -1.1897,1.925 -2.3141,3.5 -2.4987,3.5 -0.1845,0 -2.4351,-0.9 -5.0013,-2 -5.0505,-2.16489 -14.9327,-2.72696 -16.0537,-0.91309 -0.4195,0.67872 -1.9581,-0.15984 -4.097,-2.23293 l -3.4252,-3.31984 -24.712,0.23007 c -39.12774,0.3643 -41.98294,0.54009 -43.54864,2.68133 -0.9431,1.28977 -2.0772,1.66668 -3.7572,1.24871 -22.80739,6.49003 -23.75731,-14.52509 -31.7923,-10.75527 -1.0373,0.55514 -2.8288,2.60734 -3.9812,4.56044 -1.1523,1.95311 -3.1161,3.96121 -4.364,4.46246 l -2.2688,0.91135 2.5,0.0938 c 1.9923,0.0747 2.1841,0.2787 0.9446,1.00419 -0.8555,0.50072 -7.1555,1.21004 -14,1.57627 -9.5852,0.51287 -13.9419,0.31244 -18.9614,-0.87233 -11.4425,-2.70084 -27.1971,-3.16223 -40.3072,-1.18043 -10.7731,1.62852 -11.8239,1.63837 -14.1224,0.13236 -2.7042,-1.77183 -6.5536,-2.18294 -6.5536,-0.6999 0,1.15893 -5.24,0.54991 -8.0063,-0.93053 -1.1944,-0.63927 -5.3018,-0.95037 -9.733,-0.73722 -7.5903,0.36512 -7.7056,0.33343 -11.6053,-3.18976 -4.6643,-4.21385 -7.8697,-9.0672 -9.6227,-14.56967 -0.7009,-2.2 -1.6039,-4.3615 -2.0068,-4.80334 -0.8066,-0.88455 -8.7713,6.45893 -11.4662,10.57188 -1.9822,3.02527 -1.1681,5.32116 3.0688,8.65391 l 2.6412,2.07755 -3.167,0 c -1.7418,0 -4.8017,0.68305 -6.7997,1.51788 -8.0385,3.35869 -31.514,3.90136 -40.4451,0.93493 -2.9294,-0.973 -6.4859,-1.45031 -8.4417,-1.13293 -1.8587,0.30164 -3.6439,0.12072 -3.967,-0.40204 -0.3231,-0.52275 -1.0543,-0.66187 -1.6251,-0.30915 -0.6714,0.415 -0.5588,0.97696 0.3191,1.59244 1.0948,0.76749 1.0672,0.86403 -0.1432,0.5 -0.825,-0.24812 -1.3875,-0.95738 -1.25,-1.57613 0.2343,-1.0543 -3.0239,-1.71879 -5.25,-1.07072 -3.7088,1.07972 -13.1436,0.66428 -15.7711,-0.69445 -1.9023,-0.98374 -4.1299,-1.31808 -6.1112,-0.91722 -1.7147,0.34692 -4.4677,0.90591 -6.1177,1.2422 -1.65,0.33628 -2.49704,-1.56895 -4.50124,-0.30527 -4.45695,0.72966 -8.44968,0.25617 -12.92122,-1.72325 -8.77667,-3.76927 -0.59123,-3.53953 -9.59114,-10.47146 -3.5213,-2.66143 -5.3763,-4.9692 -6.4627,-8.04005 -2.3554,-6.65802 -7.4222,-8.00859 -8.5705,-2.28448 -0.4859,2.42203 -2.2723,6.16948 -6.3851,13.39443 -1.20001,7.91279 -1.51946,4.66548 -6.5841,8.14284 -2.0834,-1.36512 -3.2439,-1.46469 -6.75,-0.57914 -4.1769,1.05497 -29.0531,0.94873 -61.234,-0.26152 -9.5514,-0.35921 -17.21,-0.1449 -21.0842,0.58999 -5.1479,0.9765 -6.8296,0.90012 -10.9281,-0.4964 -6.73823,-3.85044 -14.96142,2.63778 -32.7866,-5.19626 0.7859,-4.84303 -0.294,-7.99792 -4.2286,-12.353 l -3.4767,-3.8483 -4.0136,1.98581 c -6.2055,3.07021 -8.1538,6.18687 -7.8581,12.57028 l 0.2492,5.38026 -7.3918,3.5208 c -5.7877,2.75673 -7.7271,3.27735 -8.9367,2.39897 -0.8496,-0.61701 -2.1241,-1.39854 -2.832,-1.73675 -1.4955,-0.71438 -5.424,2.47691 -4.6302,3.7613 0.8016,1.29703 -1.6887,1.05114 -7.1737,-0.70832 -5.3337,-1.71092 -8.0299,-2.29676 -13.4089,-2.91347 -1.925,-0.2207 -5.4558,-0.88816 -7.8463,-1.48323 -3.6289,-0.90339 -5.4444,-0.74908 -10.99996,0.93496 -20.71902,6.28047 -32.49341,7.69229 -33.65408,4.03535 -0.92584,-2.91706 -4.03149,-4.31987 -6.56358,-2.96473 -1.55975,0.83475 -2.44735,0.78636 -3.63354,-0.19809 -1.0301,-0.8549 -4.67261,-1.30841 -10.59706,-1.31939 l -9.02745,-0.0167 -0.37021,-3 c -0.20362,-1.65 -1.03117,-4.99266 -1.83902,-7.42814 -0.80784,-2.43548 -1.47494,-6.48548 -1.48245,-9 -0.0178,-5.96738 -0.89655,-9.07186 -2.5678,-9.07186 -1.52303,0 -3.41855,3.0457 -3.41855,5.4929 0,0.89341 -1.3187,3.28549 -2.93044,5.31574 -1.61174,2.03025 -3.2398,5.39474 -3.61791,7.47665 -0.72672,4.00138 -4.16182,6.71471 -8.50086,6.71471 -1.18169,0 -3.70157,0.73697 -5.59973,1.6377 -2.92746,1.38917 -3.86093,1.44012 -6.15113,0.33574 -1.48496,-0.71608 -6.6076,-1.41074 -11.38364,-1.54369 -4.77605,-0.13295 -9.95105,-0.50052 -11.5,-0.81683 -1.54896,-0.31631 -5.96629,-0.80589 -9.81629,-1.08796 -3.85,-0.28208 -9.925,-0.80343 -13.5,-1.15856 -3.575,-0.35513 -7.4,-0.57484 -8.5,-0.48825 -1.1,0.0866 -8.525,0.28769 -16.5,0.44689 -7.975,0.15921 -17.52793,0.66236 -21.22873,1.11813 -7.25486,0.89346 -14.77847,-0.46504 -18.02649,-3.25494 -1.79286,-1.53998 -5.74478,-13.22562 -5.74478,-16.98703 0,-6.11219 -5.27627,-2.12862 -6.38785,4.82281 -0.36422,2.2777 -1.74257,6.27326 -3.063,8.87901 l -2.40079,4.73773 -12.57005,3.10607 c -13.61832,3.3651 -12.74733,3.39274 -27.57831,-0.8753 -5.50266,-1.58354 -29.13607,-2.15199 -44.5,-1.07035 -13.64687,0.96077 -15.530777,2.42702 -25.475816,3.14056 -14.094082,0.9442 -15.355658,4.60584 -29.582717,-1.003 l -3.05852,-2.9599 -54.44148,0.0914 c -29.94281,0.0503 -56.01647,0.0321 -57.94147,-0.0404 -1.925,-0.0725 -7.41851,0.88917 -12.20779,2.13704 -7.5848,1.97624 -9.26134,2.11281 -13,1.05894 -2.36072,-0.66545 -7.72245,-1.92918 -11.91497,-2.80828 -6.896227,-1.44603 -8.193627,-1.45212 -13.612417,-0.0639 -4.74764,1.21628 -7.4179,1.32775 -12.87725,0.53754 -5.51484,-0.79824 -34.0245,-1.15561 -60.88757,-0.76323 -2.2,0.0321 -9.625,-0.32265 -16.5,-0.7884 -6.875,-0.46575 -15.72016,-0.5846 -19.65591,-0.26411 -3.93575,0.32049 -10.78322,0.31618 -15.21661,-0.01 -8.87273,-0.65197 -8.08139,-0.11467 -15.19331,-10.31587 -2.20478,-3.1625 -4.43037,-5.75 -4.94575,-5.75 -0.51538,0 -1.63123,1.34238 -2.47967,2.98307 -0.84843,1.64069 -2.88499,3.67725 -4.52568,4.52568 -1.68154,0.86956 -2.98307,2.35059 -2.98307,3.39449 0,2.58231 -2.28472,4.20618 -6.71889,4.77545 -9.60385,1.23297 -53.14723,1.5206 -56.62143,0.37401 -2.47371,-0.8164 -13.16881,-1.16859 -34.3186,-1.13011 -33.55366,0.061 -34.53353,-0.0933 -35.80616,-5.63871 -0.35139,-1.53113 -1.71717,-4.11202 -3.03507,-5.7353 l -2.39619,-2.95142 -0.9789,2.57471 c -0.57734,1.51849 -2.06142,2.8464 -3.61773,3.23701 -1.7257,0.43312 -3.12129,1.81699 -4.03308,3.99922 -1.33246,3.18902 -1.73025,3.3869 -8.97495,4.46441 -4.16938,0.62012 -8.59731,1.12749 -9.83985,1.12749 -1.24253,0 -2.78169,0.52254 -3.42035,1.1612 -0.63866,0.63866 -4.44116,1.28025 -8.45,1.42577 -4.00884,0.14552 -8.4138,0.35884 -9.7888,0.47406 -2.78943,0.23373 -8.04748,-0.87727 -18.59241,-3.92849 -6.35064,-1.83758 -8.27606,-1.95601 -18.41014,-1.13233 -6.22475,0.50593 -11.71027,0.67727 -12.19004,0.38076 -0.47977,-0.29651 -3.83323,0.84647 -7.45213,2.53996 -7.40065,3.46318 -10.72363,3.73911 -19.01659,1.57907 -3.16739,-0.825 -7.23934,-1.5 -9.04879,-1.5 -9.3692,-1.23383 -6.47391,-7.81431 -7.74183,-10.53764 -2.1737,-4.43209 -2.63777,-10.7303 -4.89712,-11.18217 -2.6579,-0.53158 -2.81903,-0.82761 -2.28121,-4.19097 0.42309,-2.64587 0.0496,-4.42167 -1.38893,-6.60411 -2.15269,-3.26587 -2.51408,-6.62018 -1.01501,-9.4212 0.53119,-0.99253 1.37759,-4.43057 1.88089,-7.64008 0.74756,-4.76715 0.57525,-6.85048 -0.94121,-11.37965 -2.11585,-6.31937 -2.39395,-11.64571 -0.82125,-15.72908 0.94413,-2.45134 1.43572,-17.05068 1.91309,-56.8151 1.32791,-7.56629 -2.34986,-37.92636 3.6492,-48.99989 7.13032,-3.84901 8.99171,-4.62445 15.46523,-3.14478 5.42247,3.23014 5.29227,-1.89274 13.7277,-1.05085 l 9.66055,0.96416 6.10453,-3.59697 c 6.01296,-3.543 6.28298,-3.59968 18,-3.77828 10.56162,-0.16098 12.74488,0.11516 19.47065,2.46265 11.53593,4.02638 21.44146,2.58284 30.11105,-0.78849 24.07487,-0.79068 18.75244,4.87255 24.3138,14.16169 2.2,3.42609 4.28514,6.23859 4.63364,6.25 1.51865,0.0497 7.86763,-8.19433 7.88001,-10.23212 12.86853,-12.92772 8.10809,-5.44015 25.98635,-6.29801 2.475,-0.15854 9.43966,-0.6968 15.47702,-1.19613 6.03736,-0.49933 12.11236,-0.55639 13.5,-0.1268 1.38764,0.4296 5.52223,1.44966 9.18798,2.26682 6.20135,1.38238 7.3144,1.34485 16,-0.53948 15.71102,-3.40849 18.11399,-3.84802 24.60335,-4.50026 5.17644,-0.52028 6.60781,-0.32282 8.21712,1.13359 1.13439,1.02661 2.79974,1.54108 3.9851,1.2311 1.11998,-0.29288 4.84728,0.32232 8.28288,1.36713 30.50313,10.65741 38.33214,3.39973 43.55243,2.37328 2.03177,-0.43185 7.10476,-0.68532 11.27332,-0.56327 4.82796,0.14136 10.27293,-0.46341 15,-1.66605 4.08144,-1.03838 9.8958,-1.79301 12.9208,-1.67695 14.26188,0.54719 37.07182,2.72808 42.23045,4.03772 4.43778,1.12664 7.14474,1.22909 12,0.45416 4.9324,-0.78724 7.32235,-0.6836 11.20588,0.48594 7.60299,2.38298 8.49635,0.0874 14.51461,7.4957 7.62727,4.07942 4.71595,5.4957 7.45308,9.97439 8.97447,-11.47324 5.03565,-11.3156 18.152647,-14.62904 5.702,0.91307 9.0352,1.93527 9.59968,2.94394 0.66123,1.18155 2.09113,1.44329 6.07586,1.11218 2.86612,-0.23816 6.12388,-0.74728 7.23946,-1.13139 1.11558,-0.38411 4.95333,-0.82642 8.52833,-0.98291 3.575,-0.1565 12.35,-0.54693 19.5,-0.86762 7.15,-0.3207 22.45,-0.72286 34,-0.89369 21.02044,-0.3109 24.95334,2.06333 35.8189,-1.54092 8.502789,3.34262 7.749014,8.19172 9.33843,10.42671 3.2252,4.04211 4.91638,4.48123 5.85606,1.52057 7.237219,-26.41 50.458562,-6.92503 73.935953,-15.15753 7.67444,-2.86209 8.53933,-2.9722 18.5081,-2.35637 7.01574,0.4334 11.91204,1.28944 14.87712,2.60104 5.77507,2.55459 7.20752,2.47515 13.35778,-0.74072 3.33325,-1.74291 6.97336,-2.76792 10.29847,-2.89992 20.15771,9.70328 35.36596,3.48798 55.50918,6.18554 3.68892,0.48232 5.11252,0.16676 7.89839,-1.75075 1.86911,-1.28652 4.21367,-3.87364 5.21012,-5.74916 1.42701,-2.68592 2.45726,-3.42914 4.85168,-3.5 1.67198,-0.0495 3.04549,0.36004 3.05226,0.91004 0.0183,1.48586 6.63735,5.5 9.06916,5.5 1.1603,0 3.433,-0.94231 5.05042,-2.09401 2.72308,-1.93901 3.21568,-1.98824 6.65437,-0.66504 3.07239,1.18224 4.40426,1.21174 7.7136,0.17086 5.5456,-1.74424 9.02421,-1.69003 10.56342,0.16461 0.95455,1.15016 2.23972,1.40169 4.75286,0.93022 2.45216,-0.46002 4.63141,-0.0681 7.56413,1.36048 7.25131,3.53215 26.80504,5.837 32.36959,3.81549 1.94921,-0.70811 2.25,-0.48499 2.25,1.66896 0,1.36749 -0.75858,3.80809 -1.68572,5.42355 -1.61853,2.82013 -1.59861,3.04796 0.5,5.7159 1.49179,1.8965 2.18572,4.16887 2.18572,7.15741 0,2.40829 0.4101,5.1601 0.91134,6.11514 0.50124,0.95504 1.62493,3.76143 2.49708,6.23643 3.26372,9.26174 8.6713,15.09599 7.18323,7.75 -0.36209,-1.7875 -0.93631,-5.87452 -1.27605,-9.08227 -0.57324,-5.41237 -0.42685,-6.00925 2.03334,-8.29047 1.55455,-1.44146 2.65106,-3.53075 2.65106,-5.05135 0,-1.78887 1.55076,-4.11964 5,-7.5149 3.31044,-3.25863 5,-5.75278 5,-7.38108 0,-1.6929 0.99385,-3.06373 3.18911,-4.39874 2.72332,-1.65615 4.36649,-1.85304 11.25,-1.34804 4.43349,0.32526 8.76977,0.95337 9.63617,1.3958 2.89815,1.47992 31.07594,2.27674 35.42472,1.00174 6.9998,-2.05221 26.3161,-3.99381 29.7981,-2.99518 1.7538,0.50297 4.7023,0.91449 6.5523,0.91449 2.8949,0 13.4729,4.10434 18.1496,7.04216 0.825,0.51825 3.975,2.24657 7,3.84071 6.5738,3.46431 8.2759,5.21905 10.7785,11.11165 l 1.898,4.46916 3.307,-6.98184 c 5.5251,-11.66498 9.856,-17.19678 15.7432,-20.10859 4.3519,-2.15247 5.7185,-2.41371 8.165,-1.56085 1.616,0.56336 3.2178,0.74481 3.5593,0.40322 1.121,-1.12099 18.9374,-1.16212 24.049,-0.0555 5.5476,1.20098 14.7813,3.93014 21.1835,6.26108 5.6188,2.04573 11.9061,1.32635 15.2057,-1.73982 3.0645,-2.84777 7.6325,-3.72447 22.0082,-4.22387 10.9486,-0.38035 16.531,0.88931 17.7378,4.03434 0.334,0.87018 1.8748,2.23766 3.4241,3.03884 1.5493,0.80119 5.8215,4.46124 9.4937,8.13344 5.6735,5.67349 6.8172,6.42574 7.6116,5.00632 0.5141,-0.91874 1.7578,-1.67043 2.7638,-1.67043 1.1223,0 2.3459,-1.25564 3.1669,-3.25 0.7359,-1.7875 3.5607,-5.3875 6.2774,-8 3.7477,-3.60388 5.7463,-4.78016 8.2834,-4.875 10.3287,-0.3861 18.3061,-0.61007 30.8439,-0.86595 7.7,-0.15715 14.5563,-0.72343 15.2362,-1.2584 1.3804,-1.08611 5.0996,-0.66495 13.2638,1.50204 3.025,0.8029 7.975,2.02669 11,2.71952 3.025,0.69283 8.1285,2.12611 11.3412,3.18507 4.4692,1.47317 7.64,1.81315 13.5,1.44749 9.5844,-0.59805 18.1117,0.80977 24.9573,4.12036 4.8065,2.32445 5.6723,2.45039 9.3244,1.35618 2.2143,-0.66341 5.455,-2.58085 7.2015,-4.26097 1.7466,-1.68012 5.7384,-4.80202 8.8707,-6.93755 6.6496,-4.53351 8.7888,-4.73085 23.9637,-2.21065 8.9952,1.4939 11.9706,1.53415 27.9127,0.37767 11.0163,-0.79914 21.9737,-1.01118 28.6364,-0.55414 5.9356,0.40717 15.9671,0.85479 22.2921,0.99472 6.325,0.13992 12.4,0.60014 13.5,1.0227 1.1,0.42257 4.1921,2.84249 6.8712,5.37761 2.9139,2.75722 5.0505,4.12629 5.3174,3.40724 0.2454,-0.66114 1.4442,-2.68614 2.6642,-4.5 2.0093,-2.98755 2.8265,-3.36357 8.6826,-3.9953 3.5555,-0.38355 8.4896,-1.13764 10.9646,-1.67576 2.978,-0.64747 8.3897,-0.62539 16.00002,0.0653 11.8423,1.07474 20.1672,0.81524 39.9111,-1.24409 8.2439,-0.85986 12.8235,-0.89609 16.5,-0.13052 2.7989,0.58282 8.2389,1.54067 12.0889,2.12855 3.85,0.58788 9.925,1.71227 13.5,2.49864 3.575,0.78638 8.975,1.94173 12,2.56745 4.854,1.00406 6.2047,1.88295 11.5,7.48322 9.0283,9.54823 10.5412,9.42338 17.8044,-1.46916 2.2666,-3.39919 4.376,-4.9195 11,-7.92775 14.6493,-6.65296 18.6786,-7.64281 25.3691,-6.23222 3.2046,0.67563 11.2265,2.05353 17.8265,3.06199 6.6,1.00845 13.125,2.29028 14.5,2.8485 6.9158,2.80766 11.1705,3.59785 13.0505,2.42375 1.9557,-1.22134 6.5684,-2.52436 15.9495,-4.5055 7.5345,-1.59116 22.0777,-1.32509 30.3939,0.55606 6.3768,1.44245 7.2923,1.99787 12.2041,7.40418 3.5695,3.92882 5.3252,6.72586 5.3561,8.53269 0.025,1.47837 0.7539,5.74082 1.6193,9.4721 1.8281,7.88276 1.503,16.44064 -1.0385,27.33995 -1.8465,7.9187 -1.8038,12.04236 0.533,51.5 0.5212,8.8 1.2079,24.55 1.5261,35 0.6655,21.85882 0.1504,24.15198 -8.0646,35.90514 -4.8061,12.50733 -6.1415,16.97641 -20.2223,17.13078 -5.3939,0.11596 -11.0739,0.71782 -12.6222,1.33746 -14.2764,-2.70787 -23.7754,-4.97156 -35.5397,-5.32751 -3.228,1.33306 -14.6738,2.14811 -17.1452,1.22089 -1.5873,-0.59553 -4.3254,-0.56615 -7.5,0.0805 -2.75,0.56014 -10.2588,1.47228 -16.6863,2.02699 -17.8843,0.92885 -13.8066,7.03701 -29.8137,0.35246 z m -104,-7.30932 c 12.6614,0.54052 20.6627,0.51617 43,-0.1309 19.2726,-0.55829 22.1849,-0.87157 28.1113,-3.02388 6.619,-2.40385 15.0837,-8.36127 16.4253,-11.56004 1.0857,-2.58839 2.528,-9.03056 3.5157,-15.70217 0.4885,-3.3 1.4072,-8.925 2.0414,-12.5 1.0954,-6.17433 1.2964,-15.22086 1.0219,-46 -0.066,-7.425 -0.074,-15.975 -0.018,-19 0.057,-3.025 -0.2297,-14.90162 -0.6362,-26.39248 l -0.7391,-20.89248 -4.7893,-5.28842 c -2.634,-2.90863 -5.2776,-6.2011 -5.8746,-7.3166 -1.3577,-2.5368 -8.1272,-5.58249 -15.738,-7.08076 -3.2015,-0.63024 -7.1709,-1.53536 -8.8209,-2.01138 -4.9437,-1.42624 -13.3532,-2.80118 -25.1044,-4.10453 -11.3128,-1.25473 -13.7984,-1.04437 -33.8956,2.86878 -2.2,0.42836 -8.05,0.39064 -13,-0.0838 -21.57634,-2.06815 -31.99314,-0.92781 -35.12014,3.84465 -1.4916,2.27649 -1.4773,3.20765 0.1882,12.21074 1.0041,5.4281 1.698,13.22227 1.5663,17.59161 -0.1302,4.31491 0.3049,10.38991 0.9668,13.5 0.662,3.11009 1.128,8.57971 1.0357,12.15471 -0.3153,12.21148 -1.088,24.49489 -1.9815,31.5 -0.9556,7.49219 0.065,25.64082 1.9131,34 1.5187,6.87188 0.6932,22.92331 -1.4636,28.456 -0.9553,2.45081 -3.3091,6.59758 -5.2305,9.21506 -1.9214,2.61748 -3.5526,5.56227 -3.625,6.54399 -0.2073,2.81373 3.24,7.25234 6.1233,7.88417 1.445,0.31665 3.7523,0.94845 5.1273,1.40401 1.375,0.45555 10.375,0.55047 20,0.21093 9.62504,-0.33955 20.87504,-0.47327 25.00004,-0.29717 z m -676.46767,-1.83387 c 8.8264,-1.141 11.53769,-3.00304 15.60008,-10.7137 3.64853,-6.92515 4.85952,-15.19393 3.77611,-25.78374 -0.53404,-5.21996 -1.6233,-11.05205 -2.42058,-12.96021 -1.12461,-2.69156 -1.26852,-5.33647 -0.64193,-11.79742 0.48799,-5.03165 0.42247,-9.5868 -0.16552,-11.50816 -0.67029,-2.19031 -0.59499,-4.8359 0.24192,-8.5 1.89123,-8.28002 4.18973,-31.92857 3.48148,-35.81989 -0.35037,-1.925 -0.79824,-6.425 -0.99527,-10 -0.20821,-3.77782 -1.46172,-9.43158 -2.99312,-13.5 -1.44918,-3.85 -2.92679,-9.7 -3.28358,-13 -0.72469,-6.70288 -1.61698,-8.24804 -8.26542,-14.31303 -5.13954,-4.68851 -16.4265,-9.18697 -23.05079,-9.18697 -2.9188,0 -4.60418,-0.73607 -7.06072,-3.08368 l -3.22678,-3.08367 -11.28598,0.52139 c -9.19949,0.42501 -12.25255,0.97699 -16.51413,2.98571 -9.14515,4.3106 -13.51622,5.08932 -17.25755,3.07448 -3.12743,-1.68423 -3.41607,-1.66865 -8.68252,0.46885 -5.11948,2.07784 -6.01487,2.14267 -14.86781,1.07644 -19.56692,-2.35662 -18.25065,-2.39384 -21.82913,0.61725 -1.79482,1.51024 -3.71545,3.9108 -4.26807,5.33456 -0.55262,1.42377 -1.38818,9.78867 -1.85679,18.58867 -0.46862,8.8 -1.31,19.6 -1.86974,24 -0.55974,4.4 -1.25311,13.6087 -1.54083,20.46378 -0.56307,13.41563 -0.27707,15.02741 5.68473,32.03622 2.28837,6.52865 3.17249,11.28309 3.81211,20.5 0.45802,6.6 1.27797,14.475 1.82211,17.5 0.54415,3.025 1.45096,9.15591 2.01513,13.62424 1.37189,10.86555 3.45019,15.85973 7.25596,17.43613 4.44023,1.8392 13.65971,1.23778 18.33445,-1.19603 4.55678,-2.37239 10.52062,-2.64151 21.01981,-0.94853 3.85,0.62081 13.525,1.69919 21.5,2.3964 7.975,0.69721 15.4,1.75714 16.5,2.3554 1.1,0.59826 5.39682,1.39769 9.54848,1.7765 4.15166,0.37882 8.20166,1.11952 9,1.646 0.79834,0.52648 2.57652,0.69074 3.95152,0.36503 1.375,-0.32571 5.21457,-0.94312 8.53237,-1.37202 z m 820.46767,0.19871 c 0.825,-0.30433 8.025,-0.67742 16,-0.8291 7.975,-0.15167 15.7668,-0.76559 17.3151,-1.36425 4.0412,-1.56257 19.0771,-1.30356 26.6849,0.45968 7.6674,1.77705 6.5736,1.70287 16.0422,1.08804 4.1482,-0.26935 8.6949,-1.01494 10.1038,-1.65685 1.4088,-0.64191 5.1805,-4.56954 8.3816,-8.72805 4.555,-5.91752 5.9927,-8.65344 6.6146,-12.58724 0.8523,-5.39141 0.093,-58.47395 -0.858,-60.01328 -1.244,-2.01272 -2.5793,-14.72678 -2.6415,-25.15078 -0.048,-8.02576 0.4628,-12.8927 1.8891,-18 1.4445,-5.17253 1.94,-10.00227 1.898,-18.5 -0.054,-11.00407 -0.2084,-11.82446 -3.5738,-19.02391 -4.9537,-10.59764 -6.6678,-11.51308 -25.356,-13.54207 -4.6197,-0.50156 -7.3803,-0.19671 -12,1.32511 -3.3,1.0871 -10.0959,2.78339 -15.1021,3.76955 l -9.1021,1.793 -12.8979,-3.25606 c -22.6991,-5.73038 -31.8714,-6.85756 -40.8111,-5.01527 -11.395,2.34828 -19.2462,8.12606 -23.7116,17.44965 l -2.8736,6 0.01,31 c 0.01,25.33118 0.2966,31.91433 1.5772,36 3.9985,12.75754 5.0149,33.04149 2.2693,45.28873 -2.3832,10.63116 -2.557,28.93611 -0.3195,33.6514 2.1519,4.53485 7.3203,9.22468 11.4614,10.40014 3.4276,0.97295 26.0284,0.53774 29,-0.55844 z m 49.0106,-19.7691 c -1.5025,-1.81042 -0.638,-4.51273 1.4437,-4.51273 0.8343,0 3.4818,0.52552 5.8833,1.16781 3.6913,0.98728 5.0462,0.89762 8.7644,-0.57997 6.1458,-2.44236 8.898,-5.26828 8.898,-9.13643 0,-1.75998 0.7264,-5.16903 1.6143,-7.57568 1.6108,-4.3662 4.0159,-15.97829 5.2395,-25.29658 0.3554,-2.70647 1.2059,-5.10555 1.89,-5.33128 2.2608,-0.74599 3.4976,4.77509 2.4086,10.75213 -0.5511,3.025 -1.5069,8.65 -2.1239,12.5 -1.7028,10.62404 -8.2212,24.27187 -12.0285,25.18452 -1.375,0.3296 -4.1696,1.43542 -6.2102,2.45738 -4.6144,2.31097 -13.9863,2.53122 -15.7792,0.37083 z m -83.7059,-71.64091 c 0.5541,-7.62655 0.773,-8.67324 5.3043,-25.37182 1.7283,-6.369 2.9274,-13.8495 3.3023,-20.60176 0.3381,-6.08829 1.1142,-11.23262 1.823,-12.0836 2.1344,-2.56233 14.7966,-9.63601 18.4888,-10.32867 2.4241,-0.45476 4.5343,-0.14566 6.7192,0.98419 3.912,2.023 3.4611,4.12062 -0.8115,3.77462 -4.4884,-0.36346 -17.6433,5.36921 -19.8032,8.62988 -1.3968,2.10863 -1.7538,4.98715 -1.814,14.62534 -0.059,9.37852 -0.4741,12.87383 -1.9023,16 -1.005,2.2 -2.1882,6.7 -2.6291,10 -1.4525,10.86901 -4.965,20.32761 -7.9139,21.31057 -1.0184,0.33947 -1.1834,-1.16011 -0.7636,-6.93875 z m -179.38824,89.25023 c 2.7845,-1.97408 8.9912,-11.76457 13.2826,-20.95205 2.9325,-6.27825 2.9518,-6.4377 2.3652,-19.5 -0.6893,-15.3485 -0.7772,-48.52792 -0.215,-81.17 0.4823,-28.00266 -0.1575,-31.83735 -6.6395,-39.79541 -2.4912,-3.05855 -4.8269,-6.49824 -5.1905,-7.64376 -1.5082,-4.75203 -11.2394,-6.68312 -40.0193,-7.94164 -14.3263,-0.62647 -19.0205,-0.49949 -23,0.62218 -9.8819,2.78528 -17.4597,3.24056 -25.9733,1.56046 -10.8155,-2.13434 -23.7578,-2.07774 -29.6673,0.12973 -3.587,1.3399 -5.4368,2.9068 -8.1471,6.90097 -7.7508,11.42243 -7.6968,11.16589 -6.6839,31.75725 1.1407,23.18861 1.9779,32.09519 3.1568,33.5815 1.6582,2.09054 1.7893,41.59841 0.1934,58.2546 -0.8129,8.48424 -1.7072,15.79684 -1.9874,16.25022 -0.2802,0.45339 -0.7126,4.5813 -0.9609,9.17313 -0.3735,6.90783 -0.097,9.14923 1.6001,12.98649 1.1283,2.55074 2.9034,5.09369 3.9448,5.65099 2.6615,1.42442 22.3272,1.3109 23.7753,-0.13724 0.8674,-0.86736 0.7936,-2.00492 -0.3,-4.62212 -0.7978,-1.90938 -1.4505,-5.01008 -1.4505,-6.89044 0,-1.88036 -1.3162,-5.9879 -2.9248,-9.12787 -4.6292,-9.03602 -5.633,-13.48885 -4.0928,-18.15571 0.7154,-2.16758 2.6197,-5.54131 4.2319,-7.49719 2.8983,-3.51608 3.0185,-3.55614 10.6714,-3.55614 7.2733,0 7.9113,0.17871 10.5788,2.96299 5.7197,5.97004 7.3326,15.88545 3.91,24.03701 -1.7235,4.10484 -1.88,4.37193 -6.1255,10.44945 -4.5532,6.51795 -6.4822,10.5004 -5.8651,12.10858 0.4272,1.11317 4.7107,1.371 22.3223,1.34361 22.9053,-0.0356 61.4922,1.02918 62.2215,1.71699 0.7002,0.66046 4.3997,-0.6611 6.9888,-2.49658 z m -753.9165,-0.92131 c 2.475,-0.88675 6.49209,-3.04262 8.92688,-4.7908 3.65678,-2.6256 4.8071,-4.28591 6.61261,-9.54424 1.20215,-3.50113 3.12318,-8.87259 4.26894,-11.93656 1.82133,-4.87056 2.03024,-7.19614 1.66188,-18.5 -0.32898,-10.09533 -0.88992,-14.13463 -2.55929,-18.42914 -6.99674,-17.99935 -8.64862,-26.05223 -8.30776,-40.5 0.38608,-16.36374 2.11529,-48.71227 2.88661,-54 0.4804,-3.29332 0.0392,-4.93484 -2.49709,-9.29144 -4.1102,-7.06001 -6.17208,-7.75784 -16.97152,-5.74391 -14.1536,2.63944 -14.24256,2.64505 -16.04597,1.01299 -4.23942,-3.83662 -26.512,-5.145 -35.97529,-2.11333 -3.025,0.96909 -7.80775,2.13732 -10.62834,2.59607 -2.82059,0.45875 -6.40072,1.66783 -7.95585,2.68685 -2.49495,1.63486 -5.11548,1.86271 -22.28096,1.93732 l -19.453473,0.0845 -2.21227,2.57192 c -1.21675,1.41456 -3.62804,6.48456 -5.35841,11.26667 l -3.14612,8.69475 0.43208,17.14878 c 0.23764,9.43183 0.94885,19.18625 1.58045,21.67648 0.91571,3.61039 0.83176,6.49529 -0.41437,14.23924 -1.94267,12.07255 -2.00699,27.45564 -0.15229,36.41768 0.77575,3.74846 1.48364,9.06538 1.57309,11.81538 0.0895,2.75 0.24225,7.025 0.33955,9.5 0.0973,2.475 -0.16434,9.81837 -0.58142,16.3186 l -0.75832,11.81859 2.82648,2.82649 c 2.51291,2.51291 3.80123,2.90768 11.6125,3.55836 10.33379,0.8608 15.889233,0.30765 24.077673,-2.3974 5.65675,-1.86871 13.86001,-3.12706 33.39581,-5.12281 7.43052,-0.75909 8.98264,-0.61769 13.5,1.22984 7.65045,3.12892 28.4755,7.55222 33.10419,7.03142 2.2,-0.24754 6.025,-1.17559 8.5,-2.06235 z m 230,-0.16813 c 11.59261,-1.44015 16.5975,-1.43972 29.5,0.003 21.2753,2.3782 26.7832,2.39138 31.5959,0.0756 7.0443,-3.38957 12.5738,-7.83133 15.9182,-12.78674 3.7846,-5.60778 8.2466,-17.10341 7.2499,-18.67841 -0.3987,-0.63008 -0.8031,-8.57059 -0.8987,-17.64559 -0.095,-9.075 -0.5129,-24.6 -0.9274,-34.5 -0.8452,-20.18442 -0.8309,-19.08131 -0.5287,-41 0.1213,-8.8 0.6972,-17.92202 1.2797,-20.27115 1.4832,-5.98122 -0.3667,-12.04103 -5.0396,-16.50831 -3.6472,-3.48678 -14.5026,-9.71435 -16.9402,-9.7184 -0.71,-0.001 -4.1644,-0.93048 -7.6765,-2.06511 -5.9996,-1.93826 -7.9467,-2.02744 -32.2091,-1.4752 -34.92347,0.79489 -43.8601,0.8048 -50.3235,0.0558 -4.99478,-0.5788 -5.94218,-0.35458 -10.31375,2.4409 -7.33131,4.68815 -9.69245,10.68533 -11.00044,27.94063 -1.22204,16.12143 -1.2567,18.57529 -0.38275,27.10081 0.36647,3.575 1.10889,10.775 1.64981,16 3.82628,36.95979 4.19539,53.97492 1.44257,66.5 -0.96705,4.4 -1.90983,12.275 -2.09506,17.5 -0.29936,8.44405 -0.0812,9.94461 1.96264,13.5 l 2.29943,4 13.84947,0.21403 c 7.61721,0.11772 14.12728,0.49184 14.46682,0.83138 0.33955,0.33954 2.19323,0.40361 4.11931,0.14237 1.92607,-0.26124 7.77695,-1.00607 13.00195,-1.65517 z m 191.5,0.14411 c 3.85,-0.54939 8.572,-1.4889 10.4934,-2.08781 4.5914,-1.43116 11.9773,-1.37992 19.3067,0.13395 5.6477,1.16652 6.0031,1.12092 7.7121,-0.98956 0.9853,-1.21684 3.915,-7.2434 6.5105,-13.39236 l 4.719,-11.17992 -0.6596,-14.58051 c -0.3628,-8.01928 -0.8717,-24.25551 -1.1307,-36.08051 -0.2591,-11.825 -0.7382,-22.85 -1.0647,-24.5 -0.3264,-1.65 -0.9251,-13.8 -1.3304,-27 -0.4454,-14.50472 -1.2365,-25.56398 -1.9997,-27.95306 -1.3044,-4.08339 -7.562,-10.73224 -14.1395,-15.02351 -5.1115,-3.33483 -26.141,-4.99041 -32.9171,-2.59146 -6.5904,2.33319 -49.8622,2.31348 -55,-0.025 -3.0504,-1.38843 -4.6943,-1.43812 -12.797,-0.38683 -7.8103,1.01335 -9.8832,1.68066 -12.9625,4.17296 -6.5516,5.30262 -12.3925,20.54859 -16.2253,42.35096 -0.9629,5.47759 -0.8843,7.5961 0.4821,13 3.4629,13.69401 3.9069,17.95917 3.8476,36.95598 -0.058,18.59587 -0.7014,27.7609 -3.3096,47.15441 -1.3093,9.73582 -0.6514,13.70223 3.5071,21.14254 4.0205,7.19352 5.5795,7.78505 23.3327,8.85359 8.5937,0.51724 22.5999,1.54878 31.1249,2.29231 16.5522,1.44365 31.1593,1.35218 42.5,-0.26613 z m -82.0092,-103.19163 c -0.3826,-0.61911 -1.1067,-4.35653 -1.6091,-8.30537 -0.9868,-7.75662 0.4354,-16.48042 2.8369,-17.40198 0.7048,-0.27044 1.2814,-1.30627 1.2814,-2.30182 0,-2.85929 3.7946,-10.95986 5.4275,-11.58647 0.8142,-0.31243 2.39,-2.10979 3.5018,-3.99413 2.192,-3.71524 4.7558,-5.02338 12.7589,-6.51006 4.085,-0.75884 5.9715,-0.63648 8.8721,0.57549 2.0262,0.84659 5.879,1.53925 8.5618,1.53925 3.6414,0 4.8779,0.37542 4.8779,1.48095 0,2.20502 -4.4078,3.04127 -14.9048,2.82771 -7.4815,-0.15221 -10.154,0.19087 -13.0682,1.67758 -5.1314,2.61783 -10.4347,8.82924 -12.4743,14.61017 -0.9515,2.69697 -2.0521,5.57859 -2.4458,6.40359 -0.6978,1.4625 -0.6676,17.06976 0.039,19.94061 0.429,1.74367 -2.6745,2.63059 -3.6548,1.04448 z m 257.9051,102.84224 c 2.1428,-0.8634 4.3928,-2.43471 5,-3.4918 1.8049,-3.14193 9.7684,-13.68617 11.8883,-15.7409 1.0811,-1.04796 2.8757,-3.96259 3.988,-6.47697 1.8849,-4.26124 1.9638,-5.62546 1.1626,-20.09463 -0.4727,-8.53767 -0.7635,-21.26053 -0.646,-28.27303 0.4839,-28.89519 0.3549,-40.05952 -0.6441,-55.75 -1.9031,-29.89128 -2.2032,-30.85079 -10.991,-35.14358 -4.1963,-2.04987 -6.1772,-2.28279 -20.1537,-2.36962 -13.783,-0.0856 -15.9985,-0.33844 -20,-2.28223 -5.021,-2.43903 -10.4144,-3.88877 -19.8735,-5.34199 -5.8339,-0.89626 -6.5615,-0.8025 -8.5945,1.10739 -1.2216,1.14762 -2.8597,1.8415 -3.6403,1.54197 -0.7805,-0.29953 -5.463,-0.75094 -10.4054,-1.00314 -4.9425,-0.2522 -13.1724,-0.74051 -18.2887,-1.08513 -12.8305,-0.86422 -15.3656,-0.2192 -20.5974,5.24062 -4.4769,4.67211 -5.5454,7.57611 -9.5054,25.83571 -1.5769,7.27089 -1.7445,88.53694 -0.1916,92.86602 0.4211,1.17369 0.8638,6.18398 0.9839,11.13398 0.2243,9.24537 3.1248,20.53617 6.6627,25.93564 1.8664,2.84849 12.0072,10.0635 17.1854,12.22706 2.486,1.03872 7.5145,1.39534 18.5864,1.31817 16.4108,-0.11439 39.8078,0.8152 40.6059,1.61332 0.2714,0.2714 7.9363,0.33809 17.033,0.14821 12.0423,-0.25138 17.5988,-0.7721 20.4354,-1.91507 z m -842.895903,-2.0342 c 6.41306,-1.81737 10.18204,-2.23005 19,-2.08038 87.13203,1.47882 82.12509,1.51916 86.46856,-0.69671 4.38192,-2.23549 4.67235,-3.21282 3.04639,-10.25169 -2.21851,-9.60404 -4.21554,-20.79264 -5.28468,-29.60796 -1.01004,-8.32807 -0.93469,-9.90258 0.69333,-14.48637 3.27601,-9.22382 5.04677,-24.90878 4.88497,-43.26998 -0.0829,-9.40498 -0.65307,-18.96569 -1.2671,-21.24603 -0.83057,-3.0845 -0.81257,-6.77152 0.0703,-14.40004 2.01801,-17.43672 1.69928,-19.03551 -4.74197,-23.78641 -8.57698,-6.32616 -8.93084,-6.429 -17.33675,-5.03888 -4.14318,0.68518 -10.31688,2.20752 -13.71935,3.38299 -5.61435,1.93963 -6.63133,2.0146 -11,0.81093 -3.84214,-1.05861 -18.75477,-2.86784 -27.3137,-3.31377 -1.8241,-0.095 -11.02652,1.64865 -16.5,3.12644 -2.28238,0.61622 -7.04865,0.81759 -11.0997,0.46894 -5.47653,-0.47132 -7.80858,-0.24444 -10.20034,0.99239 -4.98969,2.58026 -10.33473,2.07245 -14.69996,-1.3966 -5.6828,-4.51612 -6.8846,-4.1084 -10.95943,3.71805 -2.335,4.4848 -2.57116,5.67923 -1.68059,8.5 2.28854,7.2487 1.32624,34.10902 -1.4858,41.47223 -1.83013,4.79213 -1.55564,9.48255 1.3056,22.30972 2.05268,9.20235 2.01633,21.78593 -0.0839,29.05714 -0.86468,2.99357 -2.02183,7.83698 -2.57144,10.76313 -1.149867,6.12192 -1.552727,37.81864 -0.51373,40.41882 0.38221,0.9565 2.56116,3.13754 4.84212,4.84675 4.09898,3.07152 4.25184,3.10106 13.1472,2.54101 4.95,-0.31166 12.6,-1.58683 17,-2.83372 z m -88.197237,-0.25307 c 11.65848,0.2113 24.71984,0.84463 29.02524,1.4074 6.46766,0.84541 8.33327,0.76194 10.73552,-0.48031 3.60774,-1.86563 3.79436,-2.7228 4.34724,-19.96715 0.24687,-7.7 0.77514,-17.15 1.17394,-21 0.84402,-8.1482 1.00803,-19.43353 0.56679,-39 -0.31197,-13.83445 0.57947,-24.79908 2.8862,-35.5 1.25864,-5.83881 0.75003,-19.58441 -1.00553,-27.17496 -0.55016,-2.37877 -1.24391,-5.57399 -1.54167,-7.10048 -0.29775,-1.52649 -1.31742,-3.43987 -2.26593,-4.25197 -5.63149,-4.82158 -10.26123,-8.48454 -14.22456,-11.25419 -4.23724,-2.96107 -5.14231,-3.17163 -15.5,-3.60595 -6.05,-0.25369 -12.49817,-0.9241 -14.32926,-1.48978 -10.30194,-3.18262 -47.65834,-3.62602 -56.04994,-0.66529 -2.1434,0.75624 -8.10993,1.67956 -13.25895,2.05183 -12.14708,0.87823 -19.62653,2.80092 -22.64744,5.82183 -2.31887,2.31887 -2.43779,3.06966 -2.66076,16.79816 -0.1644,10.12217 0.17285,15.55337 1.14071,18.3708 0.75576,2.2 1.82275,7.6 2.37108,12 0.54834,4.4 1.49422,11.825 2.10197,16.5 0.60775,4.675 1.09694,10.3 1.08709,12.5 -0.0261,5.82251 -2.09142,21.31418 -3.10615,23.29848 -0.47858,0.93583 -1.11629,3.30796 -1.41714,5.27139 -0.30086,1.96343 -1.71345,5.28873 -3.13911,7.38955 -1.42565,2.10082 -2.5921,4.85258 -2.5921,6.11503 0,1.26244 -0.49477,3.56215 -1.09949,5.11045 -1.35142,3.46011 -1.29601,12.3196 0.0857,13.7013 0.55759,0.55759 1.02975,2.1613 1.04924,3.5638 0.0195,1.4025 0.67854,3.675 1.46456,5.05 0.78602,1.375 1.44508,3.50213 1.46456,4.72695 0.0211,1.32453 1.14981,2.91793 2.78544,3.93214 1.5125,0.93786 3.92074,2.76846 5.35164,4.06801 1.96776,1.78711 4.11654,2.47765 8.81916,2.83413 3.41963,0.25923 6.74889,0.13674 7.39835,-0.27219 2.48144,-1.56243 11.30836,-4.22517 14.10985,-4.25639 3.12322,-0.0348 5.75867,0.71157 17.48087,4.95077 6.91909,2.5022 7.76707,2.59666 12.80276,1.42607 3.74406,-0.87034 11.87377,-1.13616 26.59013,-0.86943 z m -125.80276,-1.48932 c 2.2,-0.94188 5.32255,-2.04353 6.93901,-2.44812 4.17516,-1.045 8.52888,-4.39341 9.71297,-7.47016 0.5572,-1.44785 1.17183,-8.25746 1.36583,-15.13246 0.30649,-10.86102 0.76207,-13.68007 3.47455,-21.5 3.13549,-9.0394 3.5607,-10.37075 6.54744,-20.5 2.26917,-7.69567 1.37079,-37.7163 -1.40977,-47.10937 -1.04047,-3.51485 -2.37084,-8.41563 -2.95639,-10.89063 -1.42289,-6.01431 -2.25655,-27.83072 -1.09102,-28.55106 0.50456,-0.31184 0.91738,-2.10504 0.91738,-3.9849 0,-4.26701 -3.05533,-6.51566 -9.76443,-7.18641 -3.42272,-0.34219 -5.31195,-1.1538 -6.81462,-2.92756 -3.40229,-4.01608 -13.15787,-5.57301 -29.42095,-4.6954 -7.425,0.40068 -15.3,0.75479 -17.5,0.78692 -2.2,0.0321 -4.5277,0.40096 -5.17266,0.81963 -0.64496,0.41867 -3.48353,1.19946 -6.30792,1.7351 -4.07679,0.77314 -5.59753,0.67099 -7.37798,-0.4956 -2.95996,-1.93944 -10.2699,-2.0744 -14.64144,-0.27032 -3.98778,1.64571 -15.84392,1.54361 -20.35898,-0.17532 -3.03492,-1.15543 -13.88957,-0.56122 -19.21311,1.05177 -4.00077,1.21221 -8.88395,6.43098 -10.36519,11.07754 -1.24684,3.91127 -0.28936,11.95007 2.41416,20.2688 0.72335,2.22574 1.56491,6.97181 1.87013,10.54681 0.30522,3.575 0.86486,9.73374 1.24365,13.68609 0.71986,7.51124 -0.0957,10.53574 -6.82624,25.31391 -1.13831,2.49937 -2.37397,8.05039 -2.77937,12.48585 -0.8194,8.96498 0.23016,13.31702 4.80595,19.92812 2.5058,3.62037 2.73576,4.80535 3.06573,15.79758 0.19621,6.53599 -0.12713,13.80524 -0.71853,16.15389 -0.6814,2.70607 -0.76416,6.2383 -0.22594,9.64304 0.72247,4.57034 1.53051,6.01638 5.41032,9.68215 2.50855,2.37015 5.40278,4.30937 6.43162,4.30937 1.02884,0 5.66754,-1.23991 10.30821,-2.75537 7.46463,-2.43763 9.30244,-2.67272 15.93759,-2.03873 17.30753,1.65376 21.78484,2.37025 23.45028,3.75264 1.16553,0.96743 4.66842,1.55745 10.40345,1.75233 14.0656,0.47795 25.41397,1.2235 25.89145,1.70098 1.07638,1.07638 19.09207,-0.79299 22.75482,-2.36111 z m -151.77759,0.0807 c 7.92062,-1.28746 12.03287,-3.25851 16.51182,-7.9143 3.28917,-3.41905 3.65009,-4.39849 4.50055,-12.21344 0.82454,-7.57674 0.6795,-9.30843 -1.34012,-16 -6.2192,-20.60591 -5.95827,-41.21104 0.70425,-55.61323 1.0456,-2.26024 1.90109,-5.08858 1.90109,-6.28518 0,-1.19661 0.7875,-3.37764 1.75,-4.84673 2.18077,-3.32857 2.16907,-13.57391 -0.0204,-17.82922 -0.8289,-1.61114 -2.05724,-7.20434 -2.7296,-12.42934 -0.67236,-5.225 -1.78207,-10.625 -2.46604,-12 -0.68396,-1.375 -1.79436,-5.3776 -2.46755,-8.89468 -2.06953,-10.81222 -7.63553,-17.37019 -15.56641,-18.34066 -2.2,-0.2692 -9.73381,-0.12437 -16.7418,0.32185 -17.42711,1.10963 -22.68609,0.15645 -28.45,-5.15654 -3.93142,-3.62386 -4.88975,-4.0571 -7.65127,-3.45896 -1.73631,0.37608 -4.95693,0.93583 -7.15693,1.24388 -2.2,0.30805 -5.93506,1.84822 -8.30013,3.4226 -2.36508,1.57438 -4.59045,2.86251 -4.94528,2.86251 -0.35483,0 -1.81808,1.12374 -3.25167,2.4972 -2.38338,2.28343 -3.41533,2.50612 -12.05472,2.60136 -5.19651,0.0573 -10.73764,-0.40005 -12.31362,-1.01633 -4.5403,-1.77544 -12.29764,-0.32604 -14.71708,2.74979 -1.85398,2.35695 -1.97915,3.62831 -1.53751,15.61691 0.26442,7.17809 1.00509,14.81766 1.64592,16.97682 0.86071,2.9 0.88234,5.38222 0.0828,9.5 -0.94785,4.88154 -1.17462,13.26149 -0.92206,34.07425 0.0367,3.025 -0.0714,18.61767 -0.24024,34.65037 -0.28782,27.33068 -0.18763,29.32826 1.60496,32 1.05157,1.5673 2.46362,5.48214 3.13789,8.69964 1.35954,6.48756 4.90171,11.86999 9.31278,14.15104 3.73339,1.93061 14.20451,1.9204 19.77291,-0.0193 2.35122,-0.81902 10.80755,-2.02966 18.79184,-2.69032 13.24114,-1.09564 14.79884,-1.04969 17.72506,0.52284 6.01319,3.23146 12.80536,4.28147 26.20816,4.05156 7.15,-0.12264 15.80009,-0.67813 19.22241,-1.23442 z m 1529.86643,-6.6292 c 0.3448,-1.37377 0.348,-3.22446 0.01,-4.11263 -0.8668,-2.25895 -3.596,0.0681 -3.596,3.06617 0,4.13152 2.6226,4.89623 3.5888,1.04646 z m -253.79204,-4.49269 c 8.1413,-9.45367 9.3645,-16.83389 3.9562,-23.87071 -1.7859,-2.3236 -4.2804,-4.48408 -5.5434,-4.80108 -2.98,-0.74793 -10.9485,2.30591 -12.221,4.68356 -2.1357,3.99052 -1.1329,11.05012 2.5114,17.68006 1.925,3.5021 3.5,7.17698 3.5,8.16638 0,2.04599 0.8384,3.13246 2.4167,3.13175 0.5958,-2.7e-4 3.0169,-2.24575 5.3801,-4.98996 z M 356.33651,887.13744 c 0.1065,-3.52997 0.71284,-8.2783 1.34741,-10.55185 0.85486,-3.06285 0.86357,-4.67595 0.0336,-6.22677 -0.7013,-1.31039 -1.14126,-8.83239 -1.17659,-20.11627 -0.031,-9.91278 -0.4157,-18.02323 -0.8548,-18.02323 -1.50879,0 -2.83502,2.51098 -4.48949,8.5 -4.38581,15.8763 -4.74414,24.02955 -1.48173,33.71386 1.06037,3.14768 1.92795,7.73295 1.92795,10.18949 0,10.68696 4.37633,13.03172 4.69365,2.51477 z M 47.572567,882.96932 c -0.0386,-4.5375 -0.43909,-9.15 -0.88986,-10.25 -0.76153,-1.85832 -0.89822,-1.80058 -1.92972,0.8151 -2.16656,5.49402 -0.75315,17.6849 2.05039,17.6849 0.46171,0 0.80785,-3.7125 0.76919,-8.25 z M 1106.2487,864.78469 c -1.5952,-6.3556 -4.2894,0.4288 -3.06,7.70545 l 0.7142,4.22736 1.4948,-4.68372 c 0.8222,-2.57605 1.2051,-5.83814 0.851,-7.24909 z"
       id="path3050"
       inkscape:connector-curvature="0"
       sodipodi:nodetypes="csssccsscscssccccccsssssscscsssscsssssccsssssscccssccsssccsccscsccssscssssscssssssssssssssssssssscssscccssssssscsscsssssssssscsssssssssssssccssssssscccscssscccccsssssssccsssssccccssssssccccsssccsscsssssssssssssssssssssssssssssccssscsssscsscscssscsssssscsssssscscsssssssssssssscsssccsssccccsscccsscccccscccsssssssccssccscsssccsssssssssssssscssssssssssssssssssssssssssssccsccsccssscssscccssssssssssssccsssssccsssscccsscsssscssssssssssccccsscssssscscccsssssssssssssscsscsssscsscssssssccccssccsscscsssssssssscscscccsscscsscscsssssscssssscccscsccsssssssccccscccsssssssscsssscssssssscsssssssssssscssssssssssssscccsssssssssssssssssssscssssssscsssssssccssssssssssssscsssssssssssssssssssssssscsssssscssssssssssssssssssssssssssccccsccscssssssssssssssscsssccsccc" />
  </g>
</svg>
