<?xml version="1.0" encoding="UTF-8" standalone="no"?>
<!-- Created with Inkscape (http://www.inkscape.org/) -->

<svg
   xmlns:dc="http://purl.org/dc/elements/1.1/"
   xmlns:cc="http://creativecommons.org/ns#"
   xmlns:rdf="http://www.w3.org/1999/02/22-rdf-syntax-ns#"
   xmlns:svg="http://www.w3.org/2000/svg"
   xmlns="http://www.w3.org/2000/svg"
   xmlns:sodipodi="http://sodipodi.sourceforge.net/DTD/sodipodi-0.dtd"
   xmlns:inkscape="http://www.inkscape.org/namespaces/inkscape"
   width="624.46832"
   height="74.641396"
   id="svg3805"
   version="1.1"
   inkscape:version="0.48.4 r9939"
   sodipodi:docname="PFLASTER.svg">
  <defs
     id="defs3807" />
  <sodipodi:namedview
     id="base"
     pagecolor="#ffffff"
     bordercolor="#666666"
     borderopacity="1.0"
     inkscape:pageopacity="0.0"
     inkscape:pageshadow="2"
     inkscape:zoom="1.979899"
     inkscape:cx="261.31409"
     inkscape:cy="0.9727593"
     inkscape:document-units="px"
     inkscape:current-layer="layer1"
     showgrid="false"
     fit-margin-top="0"
     fit-margin-left="0"
     fit-margin-right="0"
     fit-margin-bottom="0"
     inkscape:window-width="1855"
     inkscape:window-height="1056"
     inkscape:window-x="65"
     inkscape:window-y="24"
     inkscape:window-maximized="1" />
  <metadata
     id="metadata3810">
    <rdf:RDF>
      <cc:Work
         rdf:about="">
        <dc:format>image/svg+xml</dc:format>
        <dc:type
           rdf:resource="http://purl.org/dc/dcmitype/StillImage" />
        <dc:title></dc:title>
      </cc:Work>
    </rdf:RDF>
  </metadata>
  <g
     inkscape:label="Ebene 1"
     inkscape:groupmode="layer"
     id="layer1"
     transform="translate(-209.77143,-446.80221)">
    <g
       style="font-size:116.80969238px;font-style:normal;font-variant:normal;font-weight:normal;font-stretch:normal;line-height:125%;letter-spacing:0px;word-spacing:0px;fill:#000000;fill-opacity:1;stroke:none;font-family:Banana Brick;-inkscape-font-specification:Banana Brick"
       id="text3813">
      <path
         d="m 234.30146,457.78232 0,40.29935 1.75215,-11.68097 21.96022,0 1.98576,0 0,-16.93741 -1.98576,0 -21.96022,0 -1.75215,-11.68097 0,0 m 0,49.64412 0,14.01716 -24.53003,0 0,-74.64139 74.7582,0 0,60.62423 -50.22817,0 0,0"
         style=""
         id="path3837" />
      <path
         d="m 315.97699,521.4436 -24.53003,0 0,-74.64139 67.74962,0 0,23.24513 -41.46744,0 -1.75215,-12.84907 0,16.35336 37.3791,0 0,21.02574 -37.3791,0 0,26.86623 0,0"
         style=""
         id="path3839" />
      <path
         d="m 393.72845,498.66571 41.46744,0 0,22.77789 -68.91772,0 0,-74.64139 25.69813,0 0,64.12852 1.75215,-12.26502 0,0"
         style=""
         id="path3841" />
      <path
         d="m 467.94823,471.21544 0,12.84906 -13.43312,1.75215 50.22817,0 -13.43311,-1.75215 0,-12.84906 13.43311,-1.75215 -50.22817,0 13.43312,1.75215 m 48.94326,-24.41323 0,74.64139 -25.58132,0 0,-12.84906 12.26501,-2.3362 -49.06007,0 13.43312,2.3362 0,12.84906 -25.69814,0 0,-74.64139 74.6414,0"
         style=""
         id="path3843" />
      <path
         d="m 523.92563,446.80221 73.59011,0 0,23.24513 -47.30793,0 -1.75214,-11.68097 0,16.35336 49.06007,0 0,46.72387 -73.59011,0 0,-23.36193 47.19112,0 1.75214,11.68096 0,-16.35335 -48.94326,0 0,-46.60707 0,0"
         style=""
         id="path3845" />
      <path
         d="m 628.99046,521.4436 0,-62.96042 -1.86896,11.56416 -22.66108,0 0,-23.24513 73.59011,0 0,23.24513 -22.8947,0 -1.75215,-11.79778 0,63.19404 -24.41322,0 0,0"
         style=""
         id="path3847" />
      <path
         d="m 711.27742,498.08167 41.46744,0 0,23.36193 -67.74962,0 0,-74.64139 67.74962,0 0,23.24513 -41.46744,0 -1.75214,-11.68097 0,16.47017 37.3791,0 0,18.80636 -37.3791,0 0,15.30207 1.75214,-10.8633 0,0"
         style=""
         id="path3849" />
      <path
         d="m 771.74654,469.46329 14.13397,1.75215 0,12.26501 -14.13397,1.75215 38.07996,0 0,-15.76931 -38.07996,0 m 0.11681,37.96315 14.01716,1.75215 0,12.26501 -26.28218,0 0,-74.64139 74.64139,0 0,60.62423 -11.56416,0 11.44735,14.01716 -28.9688,0 -8.76073,-12.26501 12.96588,-1.75215 -37.49591,0"
         style=""
         id="path3851" />
    </g>
  </g>
</svg>
