<?xml version="1.0" encoding="UTF-8" standalone="no"?>
<!-- Created with Inkscape (http://www.inkscape.org/) -->

<svg
   xmlns:dc="http://purl.org/dc/elements/1.1/"
   xmlns:cc="http://creativecommons.org/ns#"
   xmlns:rdf="http://www.w3.org/1999/02/22-rdf-syntax-ns#"
   xmlns:svg="http://www.w3.org/2000/svg"
   xmlns="http://www.w3.org/2000/svg"
   xmlns:sodipodi="http://sodipodi.sourceforge.net/DTD/sodipodi-0.dtd"
   xmlns:inkscape="http://www.inkscape.org/namespaces/inkscape"
   width="1400"
   height="1400"
   id="svg2"
   version="1.1"
   inkscape:version="0.48.4 r9939"
   sodipodi:docname="PPFLASTERlogo.svg"
   inkscape:export-filename="/home/chm/Dropbox/git/pflaster/theme/img/PFLASTERlogo.png"
   inkscape:export-xdpi="90.765022"
   inkscape:export-ydpi="90.765022">
  <defs
     id="defs4" />
  <sodipodi:namedview
     id="base"
     pagecolor="#ffffff"
     bordercolor="#666666"
     borderopacity="1.0"
     inkscape:pageopacity="1"
     inkscape:pageshadow="2"
     inkscape:zoom="0.44071429"
     inkscape:cx="416.27412"
     inkscape:cy="686.04519"
     inkscape:document-units="px"
     inkscape:current-layer="layer1"
     showgrid="false"
     fit-margin-top="0"
     fit-margin-left="0"
     fit-margin-right="0"
     fit-margin-bottom="0"
     inkscape:window-width="1855"
     inkscape:window-height="1056"
     inkscape:window-x="65"
     inkscape:window-y="24"
     inkscape:window-maximized="1"
     showborder="true"
     showguides="true"
     inkscape:guide-bbox="true">
    <sodipodi:guide
       orientation="1,0"
       position="54.45705,701.13452"
       id="guide3770" />
    <sodipodi:guide
       orientation="1,0"
       position="1345.5429,1549.7569"
       id="guide3772" />
    <sodipodi:guide
       orientation="0,1"
       position="-204.21394,1341.0049"
       id="guide3774" />
    <sodipodi:guide
       orientation="0,1"
       position="247.32577,38.573744"
       id="guide3776" />
  </sodipodi:namedview>
  <metadata
     id="metadata7">
    <rdf:RDF>
      <cc:Work
         rdf:about="">
        <dc:format>image/svg+xml</dc:format>
        <dc:type
           rdf:resource="http://purl.org/dc/dcmitype/StillImage" />
        <dc:title></dc:title>
      </cc:Work>
    </rdf:RDF>
  </metadata>
  <g
     inkscape:label="Ebene 1"
     inkscape:groupmode="layer"
     id="layer1"
     transform="translate(329.25,-853.59375)">
    <path
       style="fill:#131313;fill-opacity:0.85063291"
       d="m 597.13521,2024.6861 c -1.03072,-0.3642 -3.64264,-1.7541 -5.80428,-3.0887 l -3.93022,-2.4265 -28.3973,-0.2337 c -15.61852,-0.1286 -52.0669,-0.2262 -80.9964,-0.2163 l -52.59907,0.017 -10.94804,1.8162 c -13.29133,2.2047 -18.95095,2.2853 -26.8736,0.3831 -3.28241,-0.7885 -9.6385,-1.7799 -14.12463,-2.2031 -7.64668,-0.7219 -8.65192,-0.6842 -16.07842,0.5997 -7.34443,1.27 -8.52556,1.3173 -16.20616,0.6513 -4.5564,-0.3947 -13.76598,-0.9153 -20.46576,-1.1561 -14.15535,-0.5092 -57.3739,-0.3395 -65.5921,0.2576 -3.62717,0.2636 -8.78097,0.072 -14.52397,-0.5409 -10.37404,-1.1064 -25.35392,-1.3293 -46.38299,-0.6907 -24.05733,0.7307 -27.72486,-0.1696 -37.16142,-9.1223 -2.22916,-2.1148 -4.70336,-3.8454 -5.49824,-3.8454 -0.79485,0 -2.17416,0.794 -3.06512,1.7645 -0.89095,0.9701 -3.04529,2.331 -4.78743,3.0237 -1.74212,0.6927 -3.86691,2.2078 -4.72172,3.3668 -0.85483,1.159 -2.51907,2.5139 -3.69831,3.0108 -3.43811,1.4496 -20.35885,2.2651 -52.105832,2.5116 -24.497702,0.1901 -30.791056,0.062 -37.0127,-0.7449 -7.197685,-0.9357 -26.367488,-1.0936 -80.58459,-0.6644 -11.869249,0.095 -15.367174,-0.8457 -18.38533,-4.9392 -1.138587,-1.5439 -2.894343,-3.5729 -3.901681,-4.5088 l -1.831533,-1.7016 -2.464685,1.4791 c -1.355582,0.8136 -3.690224,1.8802 -5.188075,2.3707 -1.497861,0.4902 -3.830351,1.9402 -5.183315,3.2218 -2.705508,2.5629 -5.125622,3.1633 -17.861626,4.4319 -3.865247,0.3848 -9.136043,1.1039 -11.712883,1.5978 -3.31613,0.6351 -9.88743,0.9302 -22.48872,1.0092 l -17.80357,0.1123 -11.24437,-2.3289 c -10.55234,-2.1855 -11.88915,-2.3219 -21.7214,-2.2198 -5.76239,0.059 -12.93066,0.3671 -15.92952,0.6831 -2.99886,0.3161 -7.20868,0.5761 -9.35518,0.578 -2.74205,0 -6.0066,0.7206 -10.97704,2.415 -6.10209,2.08 -7.88373,2.4102 -12.96383,2.4036 -3.23921,-0.01 -8.56076,-0.5466 -11.82563,-1.205 -4.41553,-0.8904 -7.23995,-1.0983 -11.02596,-0.8124 -4.2184,0.319 -5.42441,0.1902 -7.04397,-0.7529 -3.25893,-1.8974 -4.57336,-4.214 -4.57336,-8.0606 0,-4.6297 -4.08973,-10.2981 -8.69702,-12.0543 -4.80915,-1.8332 -5.35843,-2.3341 -5.35843,-4.8862 0,-1.3263 -0.84333,-3.475 -1.87406,-4.7749 -2.22739,-2.809 -2.50735,-8.3329 -0.59957,-11.8306 2.67761,-4.9089 2.72147,-8.6404 0.17559,-14.9447 -2.74755,-6.8034 -2.99285,-10.8788 -0.92443,-15.3603 1.15592,-2.504 1.5442,-7.363 1.85138,-23.1683 0.21379,-10.9999 0.59762,-22.1701 0.853,-24.8225 0.25535,-2.6527 -0.19085,-11.9414 -0.99159,-20.6417 -1.34354,-14.598 -1.33663,-16.1562 0.0896,-20.1905 1.24677,-3.5265 1.43634,-6.2367 0.98095,-14.0224 -0.3105,-5.3078 -1.00237,-12.228 -1.5375,-15.3778 -0.76338,-4.4936 -0.63649,-8.3241 0.58908,-17.784 3.71581,-28.6816 3.65948,-49.6781 -0.15907,-59.283 -1.2308,-3.0959 -2.86213,-6.4057 -3.62518,-7.3549 -1.06247,-1.3219 -1.38736,-4.0813 -1.38736,-11.7827 0,-11.4206 0.45439,-12.3578 7.78488,-16.0501 2.16039,-1.0883 4.7489,-2.6585 5.75225,-3.4895 3.21429,-2.6619 10.21129,-6.7019 15.31745,-8.8442 7.0477,-2.9573 13.54707,-7.1094 13.15875,-8.4065 -0.24513,-0.819 -1.83615,-1.2326 -6.71565,-1.7466 -5.42174,-0.5707 -6.74176,-0.9589 -8.678,-2.5506 -1.25598,-1.0323 -5.65927,-3.6887 -9.78509,-5.9026 -8.56216,-4.5944 -9.10572,-5.1075 -10.39144,-9.807 -4.17803,-15.2713 -4.38723,-16.9846 -3.36427,-27.5526 1.29112,-13.3379 1.26058,-19.6073 -0.15269,-31.3484 -1.17208,-9.7375 -0.85085,-20.6786 0.86723,-29.5398 0.5143,-2.6525 1.3714,-10.2486 1.90468,-16.8798 1.33161,-16.5593 2.32205,-23.8261 3.50675,-25.729 0.94181,-1.5129 7.03443,-4.7151 8.97109,-4.7151 1.53628,0 13.68308,-6.2349 13.68308,-7.0234 0,-1.2971 -9.30524,-11.2524 -12.59357,-13.4736 -1.71802,-1.1607 -3.9496,-3.3306 -4.95907,-4.8227 -1.00947,-1.4921 -2.89893,-3.7153 -4.19878,-4.9402 -2.34172,-2.2068 -2.36892,-2.3785 -2.96498,-18.6886 -0.33087,-9.0533 -0.81044,-25.8204 -1.06571,-37.2594 -0.25527,-11.4391 -0.7123,-22.3473 -1.01563,-24.2408 -0.38248,-2.3874 -0.0875,-4.3415 0.9625,-6.3753 1.33259,-2.5809 1.35383,-3.1799 0.17731,-4.9973 -1.62296,-2.5071 -1.93894,-16.0912 -0.48976,-21.0548 1.82916,-6.265 4.49821,-10.5538 7.88043,-12.6627 5.18525,-3.2334 5.69661,-5.1326 2.68515,-9.9725 -1.39688,-2.2447 -3.83856,-5.0326 -5.42597,-6.195 -2.71217,-1.9861 -2.90579,-2.4534 -3.21124,-7.748 -0.27398,-4.7492 0.0464,-6.3753 2.03941,-10.3506 4.5571,-9.0896 6.24217,-20.5568 5.10756,-34.7575 -0.37087,-4.642 -1.03456,-13.3233 -1.47486,-19.2913 -0.75368,-10.216 -0.95578,-11.0457 -3.45268,-14.1671 l -2.65212,-3.3157 -0.11483,-23.21 c -0.0631,-12.7653 0.22768,-23.8629 0.64635,-24.6615 0.41866,-0.7985 1.9684,-2.3364 3.44389,-3.4178 1.5601,-1.143 2.96473,-3.0397 3.35669,-4.5322 0.53993,-2.0561 1.93471,-3.4238 7.01196,-6.8747 3.98909,-2.7116 6.58672,-5.0369 7.00917,-6.2742 0.4946,-1.4489 1.81831,-2.4443 5.03035,-3.783 l 4.35913,-1.8168 12.37392,0.3544 c 7.04277,0.2018 13.90581,0.7248 15.92952,1.2137 3.81743,0.9224 22.54865,1.861 33.97249,1.7021 3.84514,-0.055 10.80259,-0.6306 15.46099,-1.2827 19.83307,-2.7765 32.71488,-3.2711 47.49924,-1.8243 6.00517,0.5877 12.17352,1.4861 13.70742,1.9963 1.5339,0.5104 5.575583,1.6027 8.981508,2.4274 12.06297,2.9211 27.347931,9.4438 30.448777,12.9933 1.151104,1.3179 2.440166,2.5339 2.864587,2.7027 0.746677,0.2969 4.169086,-3.0379 10.176772,-9.9165 4.353405,-4.9845 8.794336,-7.9879 14.611017,-9.8813 5.202266,-1.6934 5.389066,-1.7069 27.0829507,-2.0055 23.3449033,-0.3211 30.9477793,0.2277 47.9998473,3.4652 16.42346,3.118 16.483148,3.125 21.00883,2.3975 2.360038,-0.3793 6.188472,-1.4686 8.507618,-2.4209 5.27637,-2.1663 14.695963,-3.0151 33.239993,-2.9948 16.67387,0.018 19.33384,0.423 24.75377,3.7679 2.37531,1.4657 7.90289,4.4485 12.2835,6.6281 4.38061,2.1797 9.10012,4.8083 10.48779,5.8417 2.51986,1.8761 2.52752,1.8774 6.04258,0.9325 4.20352,-1.1301 3.20206,-0.4484 7.31289,-4.9768 1.88121,-2.0724 3.80177,-3.7677 4.2679,-3.7677 0.46615,0 2.91274,-1.3289 5.43687,-2.9527 l 4.58934,-2.9527 8.15312,-0.437 c 4.48424,-0.2402 9.63702,-0.282 11.45066,-0.094 1.81362,0.1894 4.34104,0.089 5.61649,-0.2231 2.07637,-0.5078 34.61468,-1.3816 52.83409,-1.4188 7.69255,-0.016 10.21348,0.356 44.72076,6.5944 8.01165,1.4486 9.52215,1.5339 20.61466,1.1635 10.14952,-0.339 13.27278,-0.2136 20.54019,0.8236 4.82384,0.6885 10.7967,2.0316 13.66269,3.0723 2.80066,1.0166 5.95372,1.8487 7.00684,1.8487 3.96778,0 10.2607,-1.9459 14.33175,-4.4319 5.40642,-3.3012 13.90899,-7.3999 18.42075,-8.8796 5.06526,-1.6614 12.53493,-1.4369 34.52146,1.038 7.25885,0.8169 10.06436,0.8452 20.14613,0.2038 20.69942,-1.3167 47.11629,-1.6441 58.56439,-0.7253 5.66903,0.4549 11.99398,0.6939 14.05545,0.5306 2.06147,-0.1631 10.2839,-0.096 18.27209,0.152 16.539,0.5107 19.72621,1.2025 25.11845,5.4511 1.70405,1.3427 3.44688,2.4415 3.87295,2.4415 0.42608,0 2.19435,-1.2081 3.92948,-2.6848 3.80829,-3.2404 5.64818,-3.7453 15.33617,-4.2079 4.12293,-0.1965 9.8154,-0.7578 12.64991,-1.2468 6.06668,-1.0467 16.92913,-1.1574 24.8313,-0.2531 9.10499,1.042 31.82277,1.1851 40.28952,0.2541 14.62133,-1.6082 32.92556,-2.3926 37.74499,-1.6183 4.13828,0.6653 9.52949,1.2435 23.16472,2.4845 3.09222,0.2814 8.99553,1.0683 13.11846,1.7487 4.12293,0.6801 9.81542,1.4148 12.64987,1.6323 13.13208,1.008 17.97856,2.6337 24.52426,8.2253 8.7471,7.4723 12.33598,7.7026 18.86401,1.2102 5.3545,-5.3251 12.23066,-8.8232 21.59385,-10.9845 2.65474,-0.613 7.56636,-1.8477 10.91485,-2.7441 7.91104,-2.1178 19.30322,-2.6193 29.15624,-1.2839 9.59933,1.3013 17.88595,2.1135 26.07196,2.5558 3.83274,0.2069 9.52522,0.9923 12.64996,1.7454 12.78731,3.082 14.20102,3.1193 27.47574,0.7259 24.55254,-4.4267 40.77297,-5.3982 49.88825,-2.9883 1.80386,0.4771 6.02043,1.0096 9.37037,1.1836 8.41329,0.4366 10.55101,1.0864 14.13231,4.2948 1.7094,1.5313 4.9214,4.0978 7.1378,5.7034 2.9604,2.1446 4.0326,3.4336 4.0409,4.8583 0.01,1.0666 0.6286,3.4312 1.3833,5.2548 0.7546,1.8236 1.8717,6.6291 2.4824,10.6783 1.0357,6.8684 0.9771,7.6984 -0.8735,12.3586 -3.2652,8.2226 -4.1006,13.509 -3.6945,23.3826 0.6099,14.8301 3.4066,44.6801 4.4339,47.3241 0.5835,1.5019 0.7137,8.2093 0.345,17.7843 -0.7153,18.569 -1.0084,19.3384 -11.008,28.871 -3.9617,3.7773 -7.0825,7.0814 -6.935,7.3426 0.1476,0.2616 2.7982,1.893 5.8905,3.6258 3.0921,1.7328 6.1468,3.6266 6.7881,4.2087 1.5627,1.4182 3.3028,30.0669 2.6353,43.3867 -0.2851,5.6843 -1.1744,12.109 -2.0497,14.8064 -1.348,4.1532 -1.4765,7.9064 -1.0027,29.2414 l 0.5435,24.4766 -4.0777,2.5744 c -2.6544,1.6763 -4.4204,3.4432 -5.0605,5.0633 -1.5251,3.8608 -14.63542,16.4991 -24.24749,23.3748 -2.7057,1.9355 -4.91944,3.9236 -4.91944,4.4179 0,0.4943 1.82527,2.1245 4.05606,3.6225 l 4.05605,2.7235 7.06193,0 c 7.90819,0 10.78289,0.9384 13.55129,4.4238 0.8326,1.0484 3.6427,3.1734 6.2447,4.7227 l 4.731,2.8167 0.8136,12.556 c 0.522,8.0513 1.3004,13.4828 2.1698,15.1393 0.7458,1.4206 1.3639,3.4553 1.3734,4.5214 0.01,1.066 0.6586,4.2443 1.4423,7.0623 1.7782,6.394 1.0002,17.2786 -1.6143,22.5877 -2.0996,4.2632 -4.1448,14.4567 -3.7534,18.7079 0.5498,5.9732 0.1267,21.7718 -0.6685,24.9631 -0.5018,2.0132 -0.4555,4.0884 0.1208,5.4256 0.6732,1.5617 0.59,3.0054 -0.2988,5.1797 -0.6778,1.6576 -1.1273,4.4246 -0.9988,6.1486 0.3974,5.3333 -1.6514,12.4737 -5.7082,19.8944 -4.7496,8.6887 -5.0488,11.8582 -1.5267,16.168 2.9231,3.5771 6.4311,10.7116 7.5527,15.3614 1.1212,4.6479 2.8414,21.9773 2.932,29.5395 0.043,3.4815 -0.2873,10.6707 -0.731,15.9757 -0.8562,10.2367 -1.076,43.6505 -0.432,65.7109 0.3385,11.6052 0.1897,13.4943 -1.1911,15.1151 -0.8678,1.0188 -2.2379,2.2049 -3.0444,2.6357 -0.8065,0.4305 -3.3967,2.5235 -5.756,4.6504 l -4.2896,3.8676 2.0547,2.2383 c 1.2472,1.3588 2.2321,3.6602 2.5061,5.8555 0.7374,5.9115 7.4149,17.1511 13.4632,22.663 1.0547,0.9607 1.9338,3.167 2.2825,5.7269 0.3122,2.2904 1.2223,6.1876 2.0226,8.6602 1.421,4.3905 1.4148,6.2376 -0.063,18.7137 -0.4938,4.1696 -3.8535,12.7562 -7.5395,19.27 -1.9769,3.4937 -1.5093,20.1243 0.7212,25.6427 2.0884,5.1673 5.1392,15.0926 5.8638,19.0764 0.6863,3.7743 -0.7047,8.6154 -3.4398,11.9705 -0.9462,1.1605 -2.3642,3.1511 -3.1514,4.4236 -0.7873,1.2729 -2.7176,3.3589 -4.2895,4.6356 -1.5718,1.277 -3.5147,3.7622 -4.3176,5.5232 -2.334,5.119 -6.307,7.2301 -18.60623,9.8879 l -7.30284,1.5779 -7.13095,-1.3657 c -4.51548,-0.8648 -11.25495,-1.5296 -18.37529,-1.8129 -6.18444,-0.2463 -19.04517,-0.8945 -28.57939,-1.4409 -23.00911,-1.3191 -65.72711,-1.3433 -77.30602,-0.045 -4.515,0.5066 -9.6352,0.9213 -11.37794,0.9213 -3.43265,0 -14.85076,-1.8826 -18.00458,-2.9687 -3.11429,-1.0723 -6.41377,-5.3502 -8.63712,-11.1983 -3.00735,-7.9108 -4.07719,-8.1392 -7.05893,-1.5073 -1.7703,3.9373 -7.29505,11.6121 -9.00071,12.5033 -1.25737,0.6573 -8.17441,1.9358 -20.88211,3.8596 -16.33156,2.4728 -15.00861,2.4683 -29.66115,0.097 -11.94911,-1.9348 -15.26363,-2.2188 -29.84034,-2.5568 -19.84308,-0.4599 -55.17616,0.703 -60.52497,1.9921 -2.01384,0.4854 -6.52701,1.5839 -10.02918,2.4412 -6.03788,1.478 -7.27473,1.5578 -23.89421,1.5402 -10.91153,-0.014 -18.23403,-0.2679 -19.40076,-0.6802 z m 379.56865,-9.6028 c 10.81837,-0.6939 13.67708,-1.4103 18.45884,-4.626 4.0945,-2.7539 8.836,-9.7485 9.9706,-14.7092 1.5236,-6.6616 -0.055,-18.8718 -3.1703,-24.5178 -2.2439,-4.0671 -2.3524,-4.699 -1.3622,-7.937 1.0022,-3.2768 0.8048,-8.0722 -0.6258,-15.2143 -0.4216,-2.1044 0.046,-4.2398 1.7828,-8.1384 1.8368,-4.1232 2.5866,-7.8035 3.411,-16.7393 1.4574,-15.7966 -0.1393,-26.2801 -5.5454,-36.4096 -1.6443,-3.081 -3.3285,-7.7654 -3.7429,-10.4098 -0.8754,-5.5872 -2.22045,-6.9402 -12.84658,-12.9226 -7.64061,-4.3019 -16.38844,-6.5518 -29.22659,-7.5177 -8.8255,-0.664 -10.47216,-1.0968 -14.09555,-3.7058 -2.8849,-2.0773 -3.21526,-2.1027 -17.89562,-1.3723 -6.12496,0.3048 -12.31471,1.0333 -16.398,1.9306 -22.29137,4.8981 -25.50598,5.2211 -32.342,3.2521 l -3.96732,-1.1429 -6.67662,1.5156 c -6.1807,1.4027 -7.53617,1.4904 -18.2462,1.1767 -6.36315,-0.1862 -14.38673,-0.8051 -17.82994,-1.376 -8.39417,-1.3909 -13.18036,-0.5071 -17.62441,3.2552 -4.59153,3.8872 -5.27491,6.3428 -5.48766,19.718 -0.14312,8.9942 -0.57929,12.9452 -1.71683,15.5529 -0.8388,1.9228 -1.53498,4.771 -1.54729,6.3301 -0.0122,1.5589 -0.43892,3.9193 -0.94817,5.2456 -0.50905,1.3263 -0.94593,7.7013 -0.97063,14.167 l -0.0446,11.7558 6.73823,13.2626 6.73843,13.2628 0.38505,8.1384 c 0.21184,4.476 0.96525,9.6306 1.67444,11.4543 0.709,1.8232 1.56569,5.4859 1.90356,8.1384 1.50662,11.8278 4.43052,19.8803 8.14158,22.4215 4.84556,3.3185 17.43068,3.4025 28.10867,0.1877 7.72108,-2.3245 16.32881,-2.9295 22.20497,-1.5606 2.25516,0.5257 5.99458,0.9554 8.30981,0.9554 2.31524,0 7.63842,0.4062 11.82926,0.9023 4.19094,0.4965 15.20976,1.2925 24.48635,1.7692 9.27657,0.4769 21.92646,1.5395 28.11091,2.3615 18.77934,2.4961 16.80504,2.3946 30.05648,1.5456 z m -215.89202,-1.1177 c 7.14239,-0.7523 18.04238,-4.1072 23.49112,-7.23 3.51722,-2.0159 4.76647,-3.263 5.97597,-5.9663 0.84104,-1.8791 2.72275,-4.9094 4.18169,-6.7331 4.75925,-5.9492 5.4403,-8.9195 4.92819,-21.4927 l -0.4628,-11.3627 -3.78597,-5.727 c -2.08226,-3.1499 -4.41599,-7.3548 -5.18617,-9.3442 -0.77019,-1.9894 -2.4423,-5.898 -3.71584,-8.6857 -2.13593,-4.675 -2.31737,-6.0552 -2.33952,-17.7843 -0.0153,-7.8996 0.36846,-13.3581 1.0121,-14.4126 0.63885,-1.0463 1.04341,-6.5941 1.0549,-14.4684 0.0112,-7.8627 0.51078,-14.7188 1.29885,-17.8378 1.45743,-5.7683 1.0547,-7.2169 -3.2879,-11.8267 -4.57801,-4.8602 -8.69861,-5.8983 -17.99511,-4.5348 -2.16084,0.3172 -8.51677,1.0342 -14.12437,1.5941 l -10.19568,1.0179 -4.79677,-1.548 c -9.78858,-3.1585 -31.51641,-3.9996 -45.55774,-1.7631 -4.89606,0.7798 -12.35823,1.9259 -16.58271,2.5471 -4.22459,0.6208 -9.04473,1.5826 -10.71154,2.1371 -1.66673,0.5546 -5.80034,1.2692 -9.18562,1.5876 -7.89966,0.7439 -40.69767,1.1114 -44.04416,0.4935 -3.32153,-0.6128 -7.43147,0.5098 -10.52416,2.8744 -1.32323,1.0116 -4.19365,5.0491 -6.3787,8.9719 l -3.97283,7.1326 0.15184,14.4381 c 0.10203,9.7038 0.59573,15.9308 1.50559,18.9899 1.72128,5.7874 1.71454,11.0616 -0.0223,17.4112 -2.37086,8.6671 -2.76682,19.4491 -0.97788,26.6272 0.86764,3.4815 1.95573,9.043 2.41797,12.3584 0.46225,3.316 1.10063,7.6563 1.41865,9.6459 0.31803,1.9892 -0.11866,8.5859 -0.97038,14.6591 -1.49432,10.6554 -1.4876,11.1095 0.19167,12.9597 3.25988,3.5909 6.54506,4.4669 18.55649,4.95 13.83355,0.5562 20.09719,0.079 32.34697,-2.4686 10.25982,-2.1329 21.60432,-3.1923 49.12364,-4.5872 l 13.11847,-0.6648 7.96471,2.1081 c 6.92426,1.8328 17.58305,3.7123 32.79606,5.7833 5.74818,0.7823 7.14341,0.7982 13.28333,0.1509 z m -352.58793,-1.8502 c 3.81037,-0.3237 11.68535,-1.4111 17.49992,-2.4164 11.67354,-2.0177 14.59597,-2.1313 40.22718,-1.5648 9.27659,0.2047 32.88975,0.5361 52.47368,0.7356 19.58393,0.1998 38.13713,0.4029 41.22933,0.4513 4.15411,0.064 6.74676,-0.2685 9.92897,-1.2774 5.78516,-1.8339 6.6609,-3.2269 5.06817,-8.0613 -0.69516,-2.1098 -1.9477,-6.2777 -2.78346,-9.2619 -0.83575,-2.9841 -1.91281,-6.6462 -2.39345,-8.1385 -4.19726,-13.0295 -4.37917,-18.9008 -0.81246,-26.224 0.96893,-1.9893 2.40303,-6.737 3.18689,-10.5498 0.78385,-3.813 2.05027,-9.0651 2.81427,-11.6715 0.764,-2.6065 1.38369,-6.8113 1.37711,-9.3443 -0.0149,-5.6946 -2.40296,-21.839 -3.71325,-25.1024 -1.17069,-2.9156 -0.44848,-11.4109 1.55405,-18.2799 2.11703,-7.2613 1.39689,-10.0892 -3.24591,-12.7447 -10.00517,-5.7223 -15.45982,-7.5099 -21.24622,-6.9618 -12.39689,1.1739 -17.36537,1.8506 -21.12522,2.8766 -6.19003,1.6894 -16.16038,2.0297 -22.48872,0.7678 -2.83453,-0.5654 -12.02088,-1.382 -20.41415,-1.8149 -15.85307,-0.8174 -27.4216,-0.3022 -34.40213,1.5318 -1.72373,0.4531 -8.24779,0.7733 -16.86653,0.8279 -12.51943,0.08 -14.48657,0.2346 -18.00051,1.4196 -7.07535,2.3863 -14.60888,1.6314 -23.16304,-2.3209 -5.09416,-2.3534 -6.63605,-1.9542 -10.80569,2.7991 -3.2362,3.6892 -3.67337,5.5073 -2.09566,8.7147 2.78788,5.6678 1.01955,30.8363 -2.6368,37.5288 -1.02447,1.8756 -1.86268,4.6515 -1.86268,6.1691 0,3.238 3.1244,14.2957 5.31118,18.7971 2.02592,4.1699 1.23006,12.6648 -2.02156,21.5777 -1.33062,3.6472 -3.02394,8.8142 -3.76295,11.4818 -1.74993,6.3174 -2.12733,30.4888 -0.52479,33.6129 2.31519,4.5134 13.77363,8.0718 23.48684,7.2939 1.80378,-0.1443 6.39718,-0.5275 10.20759,-0.8512 z m -142.88276,-2.1675 c 3.07459,-0.5126 6.61648,-0.7396 7.96475,-0.5106 1.33539,0.2271 14.23457,0.4957 28.66484,0.5979 14.43026,0.1026 30.93299,0.4938 36.6727,0.871 8.81045,0.5791 10.9514,0.5472 13.74578,-0.2038 5.4113,-1.4546 5.73312,-2.3538 5.45996,-15.2532 -0.16012,-7.5612 0.14167,-12.4526 0.87405,-14.1672 0.61525,-1.44 1.06365,-3.7153 0.99647,-5.0562 -0.0671,-1.3409 0.65306,-5.231 1.60052,-8.645 1.5754,-5.6765 1.61023,-6.7565 0.40743,-12.6336 -0.95526,-4.6673 -1.17947,-10.2212 -0.81917,-20.2917 0.52186,-14.5857 1.22254,-19.6044 3.70357,-26.5257 1.9101,-5.3285 1.94951,-12.9126 0.10338,-19.8941 -0.78912,-2.9841 -1.88313,-7.1891 -2.43115,-9.3442 -1.11824,-4.3975 -3.47361,-7.3242 -6.64556,-8.2567 -1.17224,-0.3449 -4.23965,-1.8389 -6.81648,-3.3209 -6.61487,-3.8039 -14.07461,-6.9736 -18.10652,-7.6943 -1.89485,-0.3385 -8.79394,-0.6171 -15.3313,-0.6189 -6.53738,0 -13.07318,-0.2972 -14.52397,-0.6564 -7.87402,-1.9494 -24.38639,-3.0054 -49.02083,-3.135 -23.14619,-0.1216 -25.24463,-0.044 -30.92199,1.1576 -3.34989,0.7082 -12.41565,1.736 -20.14615,2.2834 -23.8645,1.6901 -31.79348,3.2719 -34.51431,6.8858 -0.83601,1.1105 -1.27584,5.4296 -1.43821,14.1233 -0.22769,12.1907 -0.17044,12.6256 2.15442,16.3644 1.58662,2.5514 2.69512,5.9365 3.30228,10.0835 0.50268,3.4334 1.65368,10.1761 2.55776,14.9839 0.9041,4.8078 1.61791,10.369 1.58628,12.3586 -0.0823,5.1695 -2.91895,17.4187 -5.0757,21.9167 -1.01039,2.1073 -1.83708,4.4292 -1.83708,5.1601 0,0.7304 -1.48762,2.9175 -3.3058,4.8601 -2.19617,2.3465 -3.92605,5.3602 -5.15367,8.979 -2.36146,6.9614 -2.33157,7.733 0.54547,14.0851 1.31633,2.9063 2.97349,7.0473 3.68257,9.2028 1.35282,4.1117 1.20212,3.9905 10.23811,8.2294 7.50908,3.5229 14.9452,4.1686 24.12916,2.0954 2.75153,-0.6211 7.3533,-1.5984 10.22615,-2.1719 8.48314,-1.6933 18.20187,-0.6709 33.66338,3.541 8.79206,2.3953 12.48192,2.4883 23.80886,0.6004 z m -145.43988,-1.5386 c 3.45048,-0.9422 7.04781,-1.7131 7.99409,-1.7131 2.3344,0 12.07976,-3.981 12.93249,-5.283 1.96044,-2.9931 2.82059,-7.8926 2.03598,-11.5967 -1.36535,-6.4462 1.87505,-16.3096 11.27549,-34.3209 5.11346,-9.7975 5.44064,-12.3035 4.17705,-31.9929 -0.83657,-13.0357 -1.10829,-14.5166 -3.40264,-18.544 -3.02993,-5.3186 -5.01118,-13.1527 -5.06752,-20.0388 -0.0231,-2.8183 -0.55563,-6.7935 -1.18347,-8.8341 -1.05388,-3.4252 -0.98036,-3.9514 0.95726,-6.849 1.77131,-2.6489 1.92805,-3.4039 1.00463,-4.8384 -1.43736,-2.2324 -6.25115,-3.6453 -14.37448,-4.2191 -5.88475,-0.4153 -6.82943,-0.6727 -9.42761,-2.5678 -2.54857,-1.8586 -3.96106,-2.26 -12.03291,-3.419 -7.94856,-1.1413 -10.95295,-1.2694 -22.957242,-0.979 -23.16377,0.5603 -31.389702,0.974 -36.769094,1.8487 -13.161988,2.1396 -15.282643,2.2427 -19.771726,0.9653 -7.291853,-2.0754 -11.281691,-2.1864 -17.907833,-0.4997 -8.019022,2.0414 -23.7279178,2.2003 -31.544069,0.3188 -4.190675,-1.0087 -6.406984,-1.1666 -12.222312,-0.8709 -3.906868,0.1985 -9.369191,0.7982 -12.138496,1.3327 -6.808706,1.3136 -13.534851,5.3597 -15.618236,9.3953 -1.41995,2.7504 -1.423047,3.4194 -0.04,8.6391 0.824488,3.1122 2.361565,7.4546 3.415702,9.6508 2.518377,5.2455 3.739701,11.4069 4.306401,21.7247 l 0.46357,8.4401 -3.865695,6.5685 c -2.126135,3.6124 -4.495274,7.3515 -5.264786,8.3091 -5.31071,6.6072 -7.004939,17.7541 -3.473629,22.854 1.053427,1.5213 3.398056,4.153 5.210278,5.8482 2.280231,2.1324 3.615634,4.2663 4.336254,6.9284 1.337399,4.9413 1.288652,15.7345 -0.09724,21.5325 -2.118075,8.8614 -0.850662,13.448 4.872244,17.6308 2.052577,1.5001 5.395735,3.1559 7.429243,3.6794 3.265443,0.8405 4.279643,0.8523 8.682855,0.1005 2.742049,-0.4684 7.592236,-1.5161 10.778192,-2.3288 5.210999,-1.3291 6.951628,-1.4615 17.3350584,-1.3202 6.3483276,0.087 12.7611046,0.4736 14.2506126,0.8604 1.489498,0.387 5.916969,0.8042 9.838818,0.9276 4.835546,0.1522 8.638575,0.6678 11.815762,1.6022 3.777711,1.1108 7.316722,1.4818 18.272096,1.9149 7.472812,0.2957 18.225239,0.739 23.894268,0.9856 5.669029,0.2466 15.999794,0.3185 22.957234,0.1596 11.22513,-0.2563 13.35652,-0.482 18.9235,-2.0022 z m -222.48321,0.9967 c 16.057007,-1.5967 20.272311,-2.5497 27.164855,-6.1415 5.208779,-2.7145 5.972411,-3.7268 7.414994,-9.8311 1.789648,-7.5727 1.54649,-10.0635 -1.559632,-15.9753 -1.54609,-2.943 -2.81109,-6.4656 -2.81109,-7.8278 0,-1.3625 -0.861827,-5.018 -1.915185,-8.1229 -1.749293,-5.1568 -1.837082,-6.5117 -1.013479,-15.646 0.904013,-10.0259 2.517286,-14.7561 6.917647,-20.284 0.776384,-0.9755 1.723323,-2.9941 2.104293,-4.4862 0.380988,-1.492 1.790719,-4.0692 3.132752,-5.7271 3.360405,-4.151 3.336752,-10.1234 -0.0587,-14.8213 -2.284737,-3.161 -2.655117,-4.3868 -4.447297,-14.7186 -0.460114,-2.6524 -1.693946,-6.0585 -2.741843,-7.5694 -1.047908,-1.5108 -2.553896,-5.1397 -3.346642,-8.0645 -2.200667,-8.1192 -7.682701,-13.4321 -16.435113,-15.9281 -3.899326,-1.1122 -27.1346,-1.1291 -37.99936,-0.027 -5.44302,0.552 -8.25312,0.4902 -15.92952,-0.3505 -10.19913,-1.1167 -10.17919,-1.1102 -16.52333,-5.3728 -4.38539,-2.9468 -4.39798,-2.9502 -8.9018,-2.4897 -2.48059,0.2538 -6.68266,0.6433 -9.33793,0.866 -4.82842,0.405 -14.63075,3.9448 -22.35604,8.0726 -1.73943,0.9297 -4.55431,1.9469 -6.2553,2.261 -5.08599,0.9386 -24.13202,0.6955 -29.75919,-0.3799 -8.34014,-1.5931 -17.70918,-0.3366 -20.15252,2.7032 -1.80981,2.2519 -1.99923,18.0436 -0.29353,24.4714 1.37537,5.1832 1.36785,10.2667 -0.0349,23.5113 -0.81966,7.7394 -0.82117,11.128 -0.006,13.8409 0.82633,2.7511 0.79583,6.882 -0.13012,17.6305 -1.37096,15.9138 -1.54823,29.2268 -0.52417,39.3637 0.61106,6.0486 1.04455,7.3265 3.399,10.0206 1.48423,1.6981 2.69861,3.7721 2.69861,4.6085 0,2.6409 3.69958,9.3554 6.21386,11.2777 4.48996,3.4331 10.08256,5.0366 18.53112,5.313 6.12657,0.2005 8.52963,0.011 12.51478,-1.0118 2.71271,-0.693 8.40517,-1.5232 12.64991,-1.845 4.24472,-0.3222 11.17773,-0.8742 15.40665,-1.2271 13.15869,-1.0974 22.76867,-0.9943 26.51263,0.2847 1.80379,0.6164 6.86376,1.8624 11.24437,2.769 7.21996,1.4948 9.34574,1.6542 22.73306,1.7054 8.93478,0.035 18.37311,-0.3021 23.89428,-0.8512 z m 681.9893,-35.7174 c -1.02076,-0.6569 -1.40818,0.2019 -0.76053,1.6856 l 0.6464,1.4809 0.32918,-1.4083 c 0.18106,-0.7744 0.0843,-1.5658 -0.21505,-1.7582 z M 366.68192,1862.3424 c 1.93198,-1.8967 1.15682,-3.4024 -2.94463,-5.7194 -3.95637,-2.2347 -4.51765,-2.2596 -7.51053,-0.3342 -2.25366,1.4498 -2.28741,1.5785 -0.83053,3.165 1.64057,1.7865 6.7326,4.3665 8.61796,4.3665 0.63957,0 1.84006,-0.6652 2.66773,-1.4779 z m 213.38206,-2.893 c 0.47875,-0.8589 -0.97579,-2.9478 -2.5124,-3.6078 -3.15181,-1.3539 -4.30501,0.9331 -1.45475,2.885 2.41744,1.6557 3.35242,1.826 3.96715,0.7228 z m -640.720577,-1.9931 c 6.172547,-3.2541 7.978286,-7.9605 3.979044,-10.3706 -4.236025,-2.553 -10.833899,-3.2697 -15.575768,-1.6924 -4.726685,1.5727 -5.15463,2.3594 -2.858533,5.2549 2.195955,2.7693 9.01463,8.9522 9.872884,8.9522 0.283535,0 2.345603,-0.9649 4.582373,-2.1441 z m 510.152767,-5.6886 c 4.75532,-0.3975 9.98134,-0.5639 11.6134,-0.3696 1.63205,0.1944 20.25558,0.097 41.38561,-0.2188 34.25238,-0.51 39.23109,-0.7093 45.91448,-1.8386 14.31003,-2.4177 16.26371,-3.6116 20.99624,-12.8301 5.236,-10.199 5.84495,-12.3427 4.63216,-16.309 -0.59761,-1.9542 -1.97615,-4.2188 -3.0634,-5.0318 -2.75155,-2.0582 -10.21844,-3.0115 -21.62797,-2.7624 -5.15367,0.1125 -18.22524,0.1923 -29.04794,0.1773 -21.65931,-0.03 -27.97583,-0.6858 -41.02903,-4.2594 -3.56797,-0.977 -7.80733,-1.7762 -9.42082,-1.7762 -5.32668,0 -23.48321,-1.9221 -28.72919,-3.0413 -2.83452,-0.6049 -8.73781,-1.997 -13.11842,-3.0934 -7.87146,-1.9707 -8.13567,-1.9933 -22.55464,-1.9132 -13.82062,0.077 -14.84986,0.1654 -19.5203,1.6881 -4.22927,1.3788 -5.28589,2.0954 -7.43031,5.0388 -2.44512,3.3558 -2.49319,3.6517 -2.19274,13.4914 0.18955,6.2076 -0.14684,11.8643 -0.87834,14.7698 -1.31686,5.2315 -1.187,12.5035 0.25421,14.2361 1.50189,1.8055 6.51253,2.7805 19.1912,3.7348 6.52981,0.4915 11.98201,0.9642 12.116,1.0504 0.73357,0.4723 35.17423,-0.1296 42.5098,-0.7429 z m 215.7034,-1.1933 c 7.79821,-0.7745 14.83825,-1.9171 20.61469,-3.3455 6.48279,-1.6034 10.81563,-2.2619 16.60274,-2.5238 9.57208,-0.4329 25.03799,0.6998 31.99314,2.3431 8.35871,1.9752 9.80994,1.9945 15.14167,0.2009 6.99804,-2.3544 12.59884,-3.309 19.45478,-3.3166 5.85369,-0.01 6.12082,-0.077 9.8388,-2.5754 6.73731,-4.5286 7.0882,-6.0505 7.15041,-31.007 0.0336,-13.4291 -0.36634,-23.7585 -1.04718,-27.0496 -0.7156,-3.4595 -0.84876,-7.658 -0.38016,-11.9869 0.39672,-3.6645 0.73278,-16.022 0.74691,-27.4608 0.0285,-23.0957 -0.61243,-26.7844 -5.81273,-33.4586 -3.57475,-4.5879 -11.21349,-11.4145 -13.83925,-12.368 -1.65432,-0.6007 -3.03795,-0.5017 -7.79333,0.557 -5.5516,1.236 -6.46043,1.2617 -22.81994,0.6436 -9.37081,-0.3539 -17.6422,-0.7774 -18.38077,-0.9408 -0.73847,-0.1633 -7.27422,-0.4226 -14.52395,-0.5764 -7.24963,-0.1535 -17.68926,-0.57 -23.19918,-0.9257 -6.21201,-0.4015 -20.95459,-0.5142 -38.80538,-0.2976 l -28.78731,0.3497 -5.91571,2.1286 c -3.25364,1.1707 -7.0634,3.0965 -8.46615,4.2799 -2.33484,1.9692 -2.61502,2.7956 -3.31424,9.7748 -0.51422,5.1322 -0.40238,9.4299 0.34224,13.1517 1.1131,5.5635 0.94862,7.0129 -2.14349,18.8872 -0.47487,1.8238 -1.03713,9.4198 -1.24945,16.8801 -0.21232,7.46 -0.8849,18.0402 -1.49461,23.511 -1.25806,11.2885 -1.24037,15.0398 0.11516,24.4169 0.52734,3.6479 0.87642,8.3954 0.77573,10.55 -0.10062,2.1545 0.23118,8.0161 0.73748,13.0259 1.41172,13.9691 2.92425,15.1696 21.4993,17.0643 15.49791,1.5807 37.44223,1.609 52.95978,0.065 z m 192.60543,-3.0125 c 5.30723,-2.6854 5.34789,-2.8174 5.01652,-16.2542 -0.16832,-6.8198 -0.29863,-20.6741 -0.28969,-30.7869 0.0153,-17.0338 0.16284,-18.6913 2.00785,-22.52 2.34075,-4.8568 2.4615,-8.2791 0.48191,-13.6513 -0.79418,-2.1551 -1.78504,-6.2245 -2.20169,-9.0428 -0.41676,-2.8185 -1.67129,-8.3796 -2.7879,-12.3586 -1.35943,-4.8443 -2.18919,-10.8187 -2.51172,-18.0854 -0.62016,-13.9711 -2.38709,-21.6803 -6.19065,-27.0112 -4.55383,-6.3825 -10.07848,-8.0235 -20.9241,-6.2154 -3.1092,0.5183 -8.79092,1.1301 -12.62598,1.3591 -6.75715,0.4044 -7.12988,0.512 -12.04395,3.4823 -7.96827,4.8165 -8.89337,6.7136 -8.07388,16.557 0.37477,4.5032 1.26561,9.6304 1.97958,11.3937 0.7768,1.9187 1.29796,6.2858 1.29796,10.8753 0,6.1059 0.41704,8.588 2.04647,12.178 1.63865,3.6113 2.05693,6.1312 2.09891,12.648 0.0549,8.5393 -2.31024,24.4047 -4.07617,27.3425 -0.67107,1.1159 -1.00296,7.368 -0.94441,17.7842 0.0498,8.8345 -0.35881,19.3181 -0.90792,23.297 -2.07646,15.0474 -1.92947,15.2436 12.63564,16.8577 5.11146,0.5664 11.19112,1.3898 13.51031,1.8297 2.3191,0.4396 6.74657,0.9861 9.83881,1.2139 3.09222,0.2281 7.73052,0.6007 10.30728,0.828 5.5328,0.488 8.92661,0.016 12.35682,-1.7206 z m 134.71338,0.4775 c 4.92182,-2.0974 6.27222,-3.6612 8.11302,-9.3958 1.0832,-3.3736 0.9915,-4.6192 -0.8652,-11.7545 -3.2102,-12.3357 -3.562,-17.1106 -1.5474,-20.9934 1.4225,-2.742 1.7157,-5.5344 1.8297,-17.4322 0.075,-7.7916 0.6337,-17.0154 1.2424,-20.4969 3.4445,-19.6964 3.3552,-23.716 -0.8366,-37.6784 -1.0952,-3.6473 -2.3306,-8.5302 -2.7457,-10.8511 -0.4149,-2.3211 -1.069,-5.0339 -1.4535,-6.0288 -1.0222,-2.6448 -8.81414,-12.3996 -10.09452,-12.6369 -0.60213,-0.1118 -4.88984,-0.5306 -9.52816,-0.9306 -4.63833,-0.4003 -9.8935,-1.0099 -11.67808,-1.3553 -1.98355,-0.384 -14.45795,-0.6003 -32.09056,-0.5566 -27.32943,0.068 -29.09241,0.1402 -33.54134,1.3714 -6.81752,1.8869 -13.91172,7.7941 -15.01826,12.5055 -0.44055,1.8762 -1.23603,4.9034 -1.76745,6.727 -0.53162,1.8235 -1.42389,10.3689 -1.98285,18.9898 -0.55906,8.6207 -1.37793,18.9295 -1.81969,22.9084 -0.45326,4.0822 -0.44736,8.4546 0.0133,10.0351 1.13459,3.8912 0.059,21.1708 -1.58327,25.4335 -1.28635,3.3388 -1.44482,7.8102 -1.40295,39.5864 0.0101,5.5626 1.08001,7.4884 5.03626,9.0409 5.30814,2.083 8.6181,2.1426 15.79454,0.2836 6.04865,-1.5664 6.81762,-1.6311 11.4613,-0.9624 3.74735,0.5394 6.19014,0.5493 9.88393,0.041 2.69851,-0.3724 7.09973,-0.5102 9.7804,-0.3066 2.68078,0.2039 8.24742,0.5876 12.37034,0.8533 4.12293,0.2652 8.9721,0.9076 10.77587,1.4272 1.80376,0.5195 5.59876,1.1334 8.43333,1.3636 8.22609,0.6682 20.89925,2.1088 21.40249,2.4325 1.51399,0.9739 7.73394,0.122 11.81852,-1.6186 z m -647.32486,0.1582 c 4.00659,-1.5719 9.35054,-5.0918 11.30537,-7.4461 2.33382,-2.8112 4.19096,-30.5674 2.67161,-39.9295 -0.53016,-3.2667 -0.24174,-5.6029 1.27691,-10.3432 2.29535,-7.1644 2.45525,-11.1082 0.65453,-16.1438 -2.85499,-7.9838 -3.37791,-10.2568 -3.37791,-14.6821 0,-2.5325 -1.10392,-8.3552 -2.45314,-12.939 l -2.45313,-8.3344 1.75036,-7.3612 c 2.16874,-9.1208 2.04892,-13.0955 -0.58493,-19.4009 -2.37991,-5.6977 -6.00678,-10.2833 -9.4073,-11.8939 -4.06749,-1.9268 -13.96674,-2.5597 -22.57733,-1.4435 -10.47646,1.3581 -24.863,1.2395 -33.61476,-0.2771 -4.12179,-0.7143 -11.67722,-1.3675 -18.2721,-1.5793 -12.26588,-0.3945 -16.83737,-1.3783 -23.26103,-5.0072 -1.75124,-0.9891 -5.45637,-2.479 -8.23361,-3.3108 -6.34514,-1.9002 -16.05894,-2.042 -26.19049,-0.3823 -3.83347,0.6284 -8.47672,1.3099 -10.31836,1.5145 -1.84162,0.2051 -5.279,1.1603 -7.63863,2.1231 -2.71343,1.1071 -6.23312,1.9066 -9.57675,2.1754 -4.06838,0.3269 -5.91664,0.8304 -8.02102,2.1842 -3.36469,2.1647 -3.57778,2.9224 -4.72049,16.7836 -1.28046,15.5321 -2.5169,26.2679 -3.18009,27.6122 -0.30913,0.6265 -0.97223,3.5547 -1.47356,6.5069 -0.50133,2.9524 -1.55134,7.4024 -2.33337,9.8891 -0.99209,3.1549 -1.54314,9.6239 -1.82313,21.4014 -0.344,14.4715 -0.73923,18.1699 -2.77018,25.9229 -4.12516,15.7464 -2.97724,29.822 3.05959,37.5151 3.23342,4.1206 5.3135,5.2592 11.95701,6.5456 4.05494,0.785 5.01446,0.7495 11.52395,-0.4269 6.23759,-1.1273 7.79728,-1.2006 12.83095,-0.6052 8.29055,0.981 10.62372,0.8645 19.28697,-0.9625 7.04987,-1.4868 9.05216,-1.6383 21.3658,-1.6167 7.47281,0.014 17.59274,0.3333 22.48872,0.7114 4.89598,0.3787 14.38311,0.9882 21.08249,1.3557 6.69939,0.3668 15.12314,1.0653 18.71946,1.552 4.98745,0.6748 7.61066,0.737 11.05691,0.2616 6.11955,-0.8445 14.13305,-0.7438 20.35543,0.2553 6.93755,1.1136 7.51484,1.1018 10.89525,-0.2244 z m -552.4098,-2.7193 c 15.1703,-5.2188 12.60777,-4.8373 31.30164,-4.6616 16.76257,0.1575 16.94074,0.1733 28.89991,2.5816 l 12.03335,2.4229 7.64429,-0.9871 c 4.20434,-0.5428 8.48759,-1.3794 9.51833,-1.8588 9.07662,-4.2228 8.22822,-4.0443 22.785169,-4.7884 20.343949,-1.039 23.333109,-2.1888 24.613692,-9.4664 0.424577,-2.4129 1.199238,-6.2863 1.721454,-8.6073 1.266596,-5.6293 1.259539,-24.0983 -0.01022,-27.1282 -0.555875,-1.3261 -2.859935,-5.0282 -5.120104,-8.2264 -2.260189,-3.1982 -4.535854,-7.4031 -5.057058,-9.3441 -3.19061,-11.8831 -3.240875,-12.4125 -1.623767,-17.107 0.85405,-2.4793 2.220358,-7.1901 3.036222,-10.4686 1.366406,-5.4904 1.361044,-6.3228 -0.06775,-10.5498 -1.834755,-5.4282 -5.397682,-13.2949 -8.495301,-18.7563 -1.363664,-2.4045 -2.723982,-6.9007 -3.520405,-11.6359 -1.190624,-7.0788 -1.516089,-7.8638 -3.933933,-9.4876 -3.751614,-2.5194 -7.482199,-2.7609 -19.545659,-1.2654 -5.72241,0.709 -13.56687,1.5665 -17.43212,1.9056 -3.86524,0.3388 -7.66021,0.7407 -8.43327,0.8932 -0.77304,0.1525 -6.04383,0.5375 -11.71287,0.8553 -14.86119,0.8332 -34.94274,-0.2016 -41.22932,-2.1247 -8.23485,-2.5196 -12.20948,-2.5169 -22.35872,0.014 -8.56984,2.1365 -9.20489,2.4281 -17.72645,8.1398 -4.86101,3.2586 -13.13684,8.1681 -18.39074,10.9108 -10.95139,5.7167 -12.66446,7.3487 -11.93073,11.3664 0.27999,1.5333 0.94891,7.0053 1.48648,12.1601 0.85422,8.1914 1.35576,10.0149 3.97968,14.4687 2.94067,4.9913 3.00317,5.3063 3.04559,15.3445 0.0372,8.8058 -0.25293,10.9464 -2.06122,15.2061 -1.84496,4.3459 -2.10765,6.4279 -2.1299,16.8798 -0.0139,6.5574 -0.40538,14.4494 -0.86981,17.5381 -0.65732,4.3717 -0.54207,6.375 0.52013,9.0429 1.70337,4.2776 6.57244,10.516 9.71153,12.4424 3.38532,2.0772 15.84959,5.1373 21.27311,5.2228 2.49098,0.038 5.79404,0.2786 7.34013,0.5316 5.01761,0.8215 6.64426,0.6346 12.7388,-1.4619 z m -9.45916,-17.2069 c -5.67373,-1.9601 -14.45703,-6.8917 -16.16232,-9.0749 -2.00836,-2.5711 -2.22625,-9.9799 -0.37693,-12.8174 1.93865,-2.9746 9.52257,-8.3436 14.94667,-10.5814 4.6183,-1.9054 5.20808,-1.9931 11.31825,-1.6864 7.62237,0.3828 10.9649,1.6131 19.76437,7.2744 6.99336,4.4991 8.45894,6.822 7.68201,12.1748 -0.88937,6.1274 -6.54591,12.0424 -13.76759,14.3969 -5.97915,1.9495 -18.19624,2.1131 -23.40446,0.314 z m 22.30164,-8.8386 c 4.65513,-1.751 7.31252,-4.7187 6.37585,-7.1199 -0.80772,-2.0703 -10.15475,-5.9517 -18.26665,-7.5852 -5.75485,-1.1587 -6.09643,-1.1645 -8.80244,-0.1442 -8.0899,3.0501 -10.66064,8.3508 -5.68449,11.7211 8.82868,5.9802 16.40853,6.8792 26.37773,3.1282 z m 261.149971,25.9788 c 10.25401,-1.6871 28.853179,-3.8967 32.798979,-3.8967 1.58423,0 4.53457,0.5423 6.55628,1.2056 2.02174,0.663 4.53546,1.2058 5.58605,1.2061 1.05061,7e-4 6.12684,0.6469 11.2805,1.4364 5.15367,0.7895 11.93272,1.6112 15.06456,1.8259 4.92226,0.3375 6.0338,0.2186 8.19901,-0.8769 3.07277,-1.5552 3.08136,-1.868 0.17779,-6.4652 -3.56059,-5.6378 -4.69163,-13.7093 -2.73672,-19.5303 1.35028,-4.0207 1.40881,-5.4305 0.43253,-10.4208 -0.62097,-3.174 -1.95381,-7.599 -2.9619,-9.8335 -2.60234,-5.7686 -4.15992,-20.1963 -2.84666,-26.3686 0.56437,-2.6526 1.22477,-6.8093 1.46756,-9.2375 0.3205,-3.206 1.0643,-5.1047 2.71573,-6.9329 3.3496,-3.7083 5.94953,-14.5249 4.49581,-18.7042 -0.59536,-1.7116 -1.00295,-5.017 -0.90574,-7.3451 0.12706,-3.0432 -0.50902,-5.7527 -2.26358,-9.6418 -3.50857,-7.7773 -5.37739,-14.2295 -5.37739,-18.5657 0,-2.5471 -0.86181,-5.4282 -2.64522,-8.8428 -3.6078,-6.908 -4.82353,-7.4426 -17.6137,-7.7471 -11.52038,-0.2745 -13.37408,0.1074 -25.418737,5.2346 l -7.727954,3.2897 -8.201568,-0.3762 c -16.901011,-0.7749 -33.842608,-1.2671 -44.350435,-1.2883 l -10.849046,-0.021 -6.017499,2.4117 c -7.463788,2.9907 -12.2366009,3.172 -18.7603512,0.7123 -2.358577,-0.8892 -5.0529008,-1.6167 -5.9873818,-1.6167 -3.639842,0 -24.458612,5.0648 -27.032121,6.5768 -3.956861,2.324 -12.629534,10.9662 -15.656237,15.6006 -1.461145,2.2375 -3.790336,5.3731 -5.175966,6.968 -2.204453,2.5376 -2.619267,3.8927 -3.31894,10.8406 -1.006762,9.9981 -0.931569,9.7048 -4.449058,17.352 -3.959869,8.6096 -3.892141,11.7476 0.388747,18.0118 2.184198,3.196 3.789645,6.8393 4.662705,10.5811 0.732358,3.1386 1.915438,6.4518 2.629088,7.3624 0.71366,0.9109 2.017945,3.5801 2.898432,5.9321 1.393348,3.7215 1.462137,5.1284 0.530704,10.8511 -0.588591,3.6167 -1.40426,9.0171 -1.812582,12.0012 -0.408312,2.9842 -1.304324,7.7946 -1.991099,10.6897 l -1.248705,5.2642 3.710704,3.4733 c 2.788586,2.6103 5.430104,4.1466 10.629889,6.1825 l 6.919194,2.7087 12.27838,0.3557 c 6.772827,0.1963 13.748945,0.1005 15.557993,-0.2146 6.0365086,-1.0501 31.067466,-1.603 34.230471,-0.7564 1.561986,0.4183 5.319918,0.9598 8.350992,1.2034 3.031054,0.2436 6.391372,0.682 7.467361,0.9738 2.988692,0.8112 16.895713,-0.018 26.319131,-1.5678 z m 479.983219,-47.9671 c 7.41011,-1.2913 15.82205,-3.9325 19.77713,-6.209 3.21914,-1.8529 4.53026,-3.7914 6.82335,-10.0878 1.87383,-5.1449 2.07838,-7.4892 2.30744,-26.4439 0.13823,-11.4391 0.77599,-26.2241 1.41723,-32.8554 0.64125,-6.6313 0.87139,-12.8099 0.51144,-13.7301 -0.87593,-2.2392 -6.38909,-6.0797 -10.70199,-7.455 -4.81428,-1.5355 -29.69285,-1.5649 -38.16197,-0.046 -11.89196,2.134 -30.51009,2.8677 -49.66259,1.9574 -7.90643,-0.3756 -9.94406,-0.6946 -13.04291,-2.0404 -3.47553,-1.5095 -4.28863,-1.5951 -15.15097,-1.5951 -10.86412,0 -11.60796,-0.079 -13.90118,-1.4643 -2.19596,-1.327 -3.58516,-1.5139 -14.83402,-1.9964 -6.82613,-0.2924 -13.75117,-0.3711 -15.389,-0.1744 -4.35059,0.5226 -25.62259,7.378 -28.73058,9.259 -5.47586,3.3142 -5.58946,3.7551 -5.38328,20.8877 0.24278,20.1743 1.4682,35.0061 3.36321,40.7063 0.82669,2.4869 1.79634,7.7335 2.15479,11.6594 0.86741,9.5002 0.088,9.1243 20.01319,9.6545 8.41974,0.2243 16.9953,0.6682 19.05676,0.9868 2.06146,0.3187 8.47621,0.5856 14.25503,0.5934 8.25888,0.011 11.52415,0.2726 15.2614,1.2202 2.615,0.6632 5.99507,1.2057 7.51127,1.2057 1.5162,0 5.40097,0.515 8.63283,1.1447 9.62188,1.8742 17.22751,2.5905 33.05,3.1122 14.47469,0.4774 33.83873,1.9399 34.92371,2.6381 1.14135,0.7342 8.98955,0.276 15.89971,-0.9284 z m -615.536815,-73.9384 c 0.467629,-0.5804 1.127919,-2.2882 1.467325,-3.7956 0.382148,-1.6972 1.875804,-3.8778 3.923018,-5.7272 1.818266,-1.6425 4.132507,-4.1854 5.142773,-5.6511 1.010257,-1.4656 3.289612,-3.8054 5.065215,-5.1996 4.988834,-3.9167 5.821947,-5.4422 3.769633,-6.9011 -0.933234,-0.6633 -4.054851,-1.6819 -6.93695,-2.2632 -6.640984,-1.3391 -11.506773,-4.3754 -13.642711,-8.5128 -0.874462,-1.694 -2.056004,-3.265 -2.625623,-3.4917 -1.121076,-0.4457 -12.448913,7.1889 -13.41437,9.0411 -0.361961,0.6942 0.520018,2.2434 2.36347,4.1514 3.616672,3.7432 5.63852,9.023 5.65681,14.7722 0.01362,4.2606 2.469903,9.9412 5.767769,13.3387 1.523917,1.5699 2.345369,1.6265 3.463641,0.2389 z m 226.423155,-2.1311 c 0.28529,-1.0658 0.87256,-6.9566 1.30501,-13.0909 0.76829,-10.8976 0.85341,-11.2337 3.72205,-14.6894 1.61466,-1.9449 2.82004,-3.7083 2.67862,-3.9184 -3.42387,-5.0856 -10.73362,-13.8647 -11.43143,-13.7295 -0.51537,0.1015 -2.71744,2.2225 -4.89345,4.717 -3.5481,4.0669 -3.8624,4.7459 -3.04536,6.5788 0.5011,1.124 0.91565,2.9949 0.92122,4.1577 0.005,1.1628 0.59675,3.3575 1.31373,4.8772 0.71698,1.5197 1.54428,5.9279 1.83845,9.7967 0.29417,3.8684 1.19559,8.729 2.00314,10.8012 2.81482,7.2223 4.49679,8.5768 5.58802,4.4996 z m 716.88165,-16.2121 c 2.30192,-3.0428 4.18536,-5.8493 4.18536,-6.2365 0,-0.9419 -2.7695,-2.4565 -5.45697,-2.9838 -2.48823,-0.4889 -7.28886,0.5988 -8.01452,1.8156 -0.38626,0.6477 1.85772,8.0216 3.7075,12.1839 0.62696,1.4106 1.39125,0.7558 5.57863,-4.7792 z m -506.66486,-4.8005 c 2.41201,-1.0412 6.28296,-3.0447 8.60211,-4.4522 2.31914,-1.4074 5.74689,-2.8717 7.61719,-3.2538 1.87031,-0.3821 4.13874,-1.2193 5.04095,-1.8606 1.58076,-1.1242 1.52993,-1.2051 -1.39826,-2.238 -3.37982,-1.1925 -14.35659,-5.6172 -17.50711,-7.0573 -1.11683,-0.5106 -2.30992,-1.7466 -2.65128,-2.7464 -0.34139,-1 -0.95745,-1.8181 -1.36903,-1.8181 -0.41158,0 -1.73045,1.6952 -2.93082,3.7678 -1.2768,2.2041 -3.78845,4.8935 -6.05248,6.4804 -5.01247,3.5136 -5.28879,4.1371 -3.178,7.1704 2.10554,3.0257 7.41074,7.9014 8.59766,7.9014 0.46398,0 2.81707,-0.8521 5.22907,-1.8936 z m 229.65008,-8.5523 c 3.65769,-1.6003 6.70032,-3.2281 6.76137,-3.617 0.23876,-1.5211 -0.37321,-2.5423 -2.49598,-4.1654 -1.21521,-0.9291 -3.55362,-3.3116 -5.19646,-5.2948 -1.64286,-1.9829 -3.55104,-3.6054 -4.24041,-3.6054 -1.63436,0 -3.52581,1.9268 -5.91792,6.0285 -1.06352,1.8235 -3.42893,4.5219 -5.25646,5.996 -1.9154,1.5451 -3.20618,3.2047 -3.04747,3.9183 0.1549,0.6967 2.28321,2.1016 4.86517,3.2118 3.90998,1.6811 4.83332,1.8597 6.23382,1.2056 0.9042,-0.4221 4.63665,-2.0771 8.29434,-3.6776 z m 192.68979,0.9506 c 9.2035,-7.4486 10.55104,-10.4706 5.60019,-12.5574 -3.01498,-1.271 -4.86477,-0.6313 -11.96415,4.1375 -5.28223,3.5482 -6.32494,4.5876 -6.32494,6.3053 0,2.2207 4.17977,5.581 6.94204,5.581 0.80505,0 3.39118,-1.5598 5.74686,-3.4664 z m -258.07157,-2.9219 c 3.61889,-0.5299 7.43691,-0.8188 8.48445,-0.6425 3.14886,0.5297 16.2045,-1.2286 21.18934,-2.8536 2.56434,-0.836 6.85548,-2.8199 9.53587,-4.4084 3.87005,-2.2939 5.17597,-3.571 6.34277,-6.2041 2.17946,-4.9183 2.66014,-23.4463 0.87585,-33.7597 -1.46344,-8.4592 -1.31669,-18.8774 0.34818,-24.717 2.0349,-7.1376 0.53134,-62.0582 -1.83418,-66.9976 -2.19004,-4.573 -6.40836,-6.7291 -20.96338,-10.7145 -9.67321,-2.649 -15.24149,-3.0971 -19.41294,-1.5629 -3.11886,1.147 -8.21575,1.1216 -13.23487,-0.063 -3.20184,-0.7578 -8.71953,-1.0135 -25.18337,-1.1681 -11.59575,-0.1088 -24.66731,-0.4752 -29.04792,-0.814 -7.59991,-0.5881 -14.36608,-0.4182 -41.22933,1.036 -4.66647,0.2528 -9.23798,0.8739 -11.03937,1.5001 -11.74926,4.0858 -21.484,9.5985 -27.05003,15.3183 -6.18499,6.3559 -7.72267,9.4667 -8.77489,17.7524 -0.5084,4.0035 -1.36715,9.0623 -1.90836,11.2417 -1.25518,5.055 -1.00295,36.4047 0.33795,42.0051 1.35582,5.6629 1.28676,19.3177 -0.16426,32.486 -1.5067,13.6731 -0.58531,17.5126 4.78745,19.9477 3.46543,1.5709 16.38371,3.9381 21.49125,3.9381 2.61628,0 9.65739,0.7981 15.64688,1.7734 19.5323,3.1807 23.92135,3.8033 30.09911,4.27 3.34991,0.2529 7.51182,0.7978 9.24874,1.2112 2.12268,0.5045 6.02449,0.6408 11.90109,0.4155 6.38348,-0.2453 9.95667,-0.092 13.24001,0.5679 3.41016,0.6854 7.21433,0.8247 15.74129,0.5771 6.18439,-0.1798 12.93101,-0.097 14.99249,0.1826 5.76108,0.7828 8.45033,0.7283 15.58018,-0.3148 z m -661.91442,-0.8983 c 6.58067,-0.3603 14.70565,-1.1486 18.05554,-1.7521 3.34987,-0.6035 8.199,-1.2804 10.77584,-1.5047 7.283331,-0.6336 12.051601,-2.2441 14.516089,-4.9034 1.191403,-1.2855 4.183386,-3.6936 6.648841,-5.3514 4.906341,-3.2993 8.342923,-8.0754 8.366147,-11.6271 0.0078,-1.2313 0.625531,-3.8662 1.372178,-5.8556 1.851653,-4.934 1.754101,-7.1536 -0.530471,-12.0703 -1.075122,-2.3139 -2.503221,-5.9703 -3.173595,-8.1254 -0.670344,-2.1553 -1.852247,-4.868 -2.626421,-6.0286 -3.534416,-5.298 -2.765225,-13.7077 2.091035,-22.8609 4.695702,-8.8509 5.778671,-14.8105 5.921017,-32.5835 0.13489,-16.8414 -0.981279,-26.4183 -4.02125,-34.5035 -3.075361,-8.1797 -2.692523,-8.0471 -22.941381,-7.9441 -7.730509,0.04 -23.121229,0.1141 -34.201599,0.1666 -16.08863,0.077 -21.03721,0.2969 -24.57039,1.0967 -4.17602,0.9449 -4.9646,0.9362 -14.05545,-0.1539 -7.35778,-0.8821 -13.94437,-1.158 -27.90332,-1.168 l -18.27207,-0.014 -5.77556,2.4681 c -3.17655,1.3575 -8.44735,2.9493 -11.71288,3.5373 -7.30784,1.3155 -15.5585,3.9499 -18.29884,5.8425 -1.12978,0.7801 -3.2381,3.0454 -4.68515,5.0338 l -2.63096,3.6153 -0.16242,30.4441 c -0.16704,31.3146 -0.43539,38.7481 -2.29596,63.6008 -1.38496,18.4998 -1.04043,22.4691 2.34202,26.982 1.47277,1.9648 4.03139,4.1725 5.89778,5.0882 3.02023,1.4822 4.48675,1.6824 17.49815,2.3878 13.88986,0.7533 21.60205,1.3619 32.94223,2.5997 3.0922,0.3374 8.15217,0.6222 11.24435,0.6326 3.09221,0.014 9.20634,0.5476 13.58695,1.1936 4.38062,0.6462 10.49474,1.1974 13.58694,1.2253 3.09219,0.025 7.30883,0.2745 9.3703,0.549 5.42884,0.7225 10.19002,0.7187 23.64231,-0.018 z m 142.477425,-0.8823 c 2.43086,-0.8455 6.074703,-2.1804 8.097428,-2.9659 2.022724,-0.7857 6.290316,-1.7454 9.483544,-2.1332 5.062042,-0.6142 7.076492,-0.5392 15.723875,0.587 13.714147,1.7861 16.298656,1.4413 26.350135,-3.5138 5.200592,-2.5637 5.951289,-2.7468 11.244352,-2.7465 3.119456,3e-4 8.9203,0.2318 12.890771,0.5142 6.3844,0.4544 7.75866,0.3644 11.88659,-0.7781 6.13841,-1.6989 15.15397,-1.7347 21.65519,-0.085 2.61499,0.663 5.61468,1.2057 6.66597,1.2057 3.29744,0 6.92719,-3.0548 9.51528,-8.0082 1.34846,-2.5807 3.75848,-5.7537 5.35559,-7.0512 4.98824,-4.0521 5.48176,-7.4403 2.52848,-17.3615 -2.92297,-9.8187 -3.04564,-12.4589 -0.90253,-19.4244 2.30188,-7.4816 1.78626,-25.783 -0.88276,-31.3331 -1.97622,-4.1093 -1.97572,-4.1549 0.18479,-16.8953 2.42914,-14.3241 3.11353,-23.4316 1.9022,-25.3131 -1.45738,-2.2636 -21.91487,-14.0207 -26.92273,-15.4724 -4.71013,-1.3655 -18.95147,-1.3761 -28.56104,-0.021 -3.97236,0.5601 -9.278252,1.0183 -11.790856,1.0183 -2.512615,0 -6.852441,0.2936 -9.644063,0.6525 -8.746942,1.1246 -29.729444,-1.076 -38.505128,-4.0383 -2.70249,-0.9122 -5.533116,-1.0317 -21.386823,-0.9038 -23.3136198,0.1881 -39.460711,0.9501 -45.597351,2.1519 -5.769423,1.1298 -16.769789,6.4056 -19.402128,9.3055 -1.020234,1.1237 -2.415881,3.9723 -3.101409,6.3298 -1.440665,4.9546 -6.890714,46.2431 -6.200921,46.9769 0.465419,0.4954 0.413432,22.0264 -0.118908,49.2447 -0.205237,10.4941 -0.731979,16.2531 -1.819542,19.894 -3.51232,11.7585 -1.220925,16.1836 10.179624,19.6598 5.44094,1.6588 10.850369,1.8176 18.272089,0.5359 6.884649,-1.1889 18.736982,-1.0721 26.2368537,0.2586 8.5998823,1.526 11.5957973,1.4737 16.6634273,-0.289 z m 311.297115,-0.2281 c 14.78341,-1.7832 22.74591,-3.9233 25.81654,-6.9385 2.57765,-2.5308 6.1241,-11.5102 6.98458,-17.6842 0.85414,-6.1288 1.79825,-8.0375 6.77698,-13.7012 2.00568,-2.2817 2.13575,-3.168 2.41691,-16.4713 0.19578,-9.2629 -0.11168,-15.8449 -0.90117,-19.2913 -1.54145,-6.7292 -1.53386,-15.339 0.0307,-34.7712 2.02401,-25.1387 1.36476,-27.4849 -10.2085,-36.3307 -8.06772,-6.1662 -9.13856,-6.4496 -23.88831,-6.3204 -15.24679,0.1338 -33.30645,1.1197 -43.15763,2.3564 -4.58306,0.5751 -9.37047,0.7997 -12.18139,0.571 -23.39497,-1.9018 -48.40465,-2.0662 -57.57312,-0.3784 -3.34988,0.6166 -9.464,1.701 -13.58692,2.41 -8.72898,1.5006 -15.91302,4.0712 -21.70627,7.7665 -5.76258,3.676 -6.5567,4.922 -9.70778,15.2327 -2.49859,8.1756 -2.7881,10.3159 -2.79278,20.6483 -0.003,6.34 -0.45203,12.5623 -0.99812,13.8277 -0.77051,1.7852 -0.65012,3.2698 0.53766,6.6298 1.32785,3.756 1.37349,5.008 0.34464,9.455 -1.27306,5.5028 -1.43704,17.1142 -0.44695,31.6458 0.48136,7.0648 0.30377,9.9194 -0.81369,13.0801 -2.60139,7.3588 -1.39177,16.0638 2.8047,20.1843 0.77316,0.7591 2.72355,1.8188 4.33422,2.3546 4.09586,1.3626 14.36239,0.3307 28.68353,-2.8828 10.42872,-2.3403 11.55311,-2.4675 21.46518,-2.4273 11.61643,0.048 11.9418,0.1177 20.93052,4.5527 8.56499,4.2258 10.97755,4.7434 22.9482,4.9235 6.53768,0.098 12.20407,0.5374 15.47003,1.1982 4.7906,0.9694 22.45166,2.1056 26.70536,1.7184 1.03074,-0.095 6.30153,-0.7046 11.71288,-1.3577 z m 668.17566,0.091 c 4.5559,-2.619 6.0048,-10.3062 3.2065,-17.0135 -1.84796,-4.4296 -1.80367,-10.4158 0.094,-12.7776 1.1555,-1.4376 1.3537,-2.7459 0.8625,-5.697 -0.3508,-2.1072 -0.9883,-3.831 -1.4168,-3.831 -0.8901,0 -5.63092,3.487 -5.63092,4.1416 0,0.2377 -2.03552,1.9808 -4.52337,3.8737 -4.68659,3.5661 -11.18398,12.4076 -13.38147,18.209 -0.62792,1.6576 -1.91454,4.1869 -2.859,5.6204 -2.52163,3.8272 -0.66471,5.5192 6.08223,5.5425 1.63275,0.01 5.07694,0.8149 7.65376,1.7983 2.57699,0.9835 5.20569,1.7925 5.84179,1.7984 0.636,0.01 2.46761,-0.7437 4.07027,-1.6648 z m -77.37814,0.1619 c 6.69968,-0.4873 14.128,-0.889 16.50732,-0.8924 5.14526,-0.01 13.39452,-2.0172 16.99826,-4.1422 3.15091,-1.8577 7.25232,-6.993 7.26323,-9.0943 0,-0.8466 1.63031,-3.7096 3.61307,-6.3621 1.98277,-2.6526 4.7091,-6.315 6.05868,-8.1384 1.34949,-1.8239 4.18513,-4.5368 6.30105,-6.0287 2.11603,-1.4921 5.56801,-4.205 7.67099,-6.0284 2.10287,-1.8238 6.13351,-5.0282 8.95669,-7.1211 4.89472,-3.6284 5.16581,-4.0063 5.83714,-8.1384 0.80491,-4.9546 2.39021,-9.6663 3.83721,-11.4062 0.5459,-0.6562 2.0371,-5.8442 3.3138,-11.5284 2.0484,-9.1203 2.2562,-11.6118 1.7664,-21.1871 -0.3052,-5.9683 -0.6895,-13.971 -0.8543,-17.7842 -0.4812,-11.1416 -1.8569,-17.6485 -4.1743,-19.7422 -4.20691,-3.8008 -8.16183,-5.3981 -18.12811,-7.3201 -5.32524,-1.0269 -11.57987,-2.3088 -13.89893,-2.8487 -6.34963,-1.477 -13.92278,-2.1597 -19.67768,-1.773 -16.21128,1.089 -22.38443,1.5463 -25.49855,1.8885 -2.71538,0.2986 -4.25696,0.073 -7.02778,-1.032 -3.17132,-1.2634 -4.89678,-1.4373 -16.19931,-1.6314 -23.83459,-0.4096 -38.82886,-0.2354 -41.69777,0.4842 -1.54616,0.388 -6.60608,2.2776 -11.24437,4.1996 -9.44136,3.9118 -11.80741,4.5099 -22.73984,5.7466 -4.20945,0.4761 -8.54624,1.1729 -9.63733,1.5487 -5.98757,2.0617 -7.14482,10.861 -3.12934,23.7958 2.74756,8.85 3.3059,19.2622 1.27691,23.8124 -0.66528,1.4922 -1.50744,5.8326 -1.87123,9.6458 -0.3638,3.813 -1.37571,10.8663 -2.24876,15.6741 -0.87295,4.808 -1.36158,10.5047 -1.08591,12.6599 0.27567,2.1553 0.90924,10.0224 1.40793,17.4827 1.49452,22.3594 2.95622,27.0552 8.9202,28.6584 3.09407,0.8318 9.94817,0.3462 13.79087,-0.9767 1.26225,-0.4347 4.08868,-0.544 7.71711,-0.2979 3.14894,0.2135 10.15278,0.4635 15.5641,0.5555 10.16762,0.1732 19.32762,1.7313 26.5432,4.5151 2.49555,0.9629 7.93757,1.9231 18.90283,3.3356 3.22975,0.416 4.37969,0.3798 16.86652,-0.529 z m -201.51019,-3.4163 8.4819,-3.1207 12.53878,-0.5185 c 13.52636,-0.5592 15.07101,-0.3939 27.65288,2.9631 3.03672,0.8103 6.41001,1.3256 7.49622,1.1453 3.2392,-0.5376 12.08764,-5.5956 14.01317,-8.0102 0.98547,-1.2359 2.83932,-4.1577 4.11968,-6.4931 l 2.32794,-4.2465 -0.0326,-26.827 c -0.0172,-14.7546 0.26714,-29.811 0.63327,-33.4582 0.36603,-3.6471 0.29823,-15.7193 -0.15075,-26.8271 -1.03132,-25.5132 -0.20431,-23.883 -15.93879,-31.4098 -6.16686,-2.9502 -11.70281,-5.364 -12.30161,-5.364 -0.59891,0 -4.232,-1.2517 -8.07348,-2.7814 -8.45701,-3.3673 -15.36386,-4.3606 -33.69006,-4.8445 -6.95737,-0.1835 -13.28231,-0.328 -14.05545,-0.3208 -41.58524,0.3857 -62.26162,0.8194 -66.06061,1.3861 -5.09234,0.7596 -16.67045,4.2483 -19.67759,5.9288 -1.03072,0.5758 -4.50841,2.0582 -7.72819,3.2937 -3.50076,1.3434 -7.90267,3.8 -10.95006,6.111 -5.87139,4.4526 -7.01879,7.1884 -5.37165,12.8078 1.719,5.8649 2.23138,12.9172 1.22429,16.8512 -0.67505,2.637 -0.65943,4.8987 0.052,7.5357 2.3327,8.6463 1.16072,24.2561 -2.59126,34.5133 -2.41836,6.6113 -3.04391,12.6045 -2.15015,20.6002 1.40081,12.5319 2.60591,15.4198 10.29472,24.6694 10.90768,13.1217 17.09961,16.5049 30.23005,16.5169 3.54771,0 8.01188,0.3068 9.92032,0.6746 2.5785,0.497 5.85603,0.4806 12.75862,-0.061 18.38474,-1.4504 21.51479,-1.3989 33.18304,0.5457 5.92668,0.9876 11.80812,1.811 13.06978,1.8298 1.26175,0.018 6.11087,-1.3705 10.77588,-3.0868 z m -629.693132,0.7695 c 0.91438,-0.9521 -2.571591,-1.3398 -3.967782,-0.4415 -1.869486,1.2027 -0.617481,2.379 1.687454,1.5855 0.970759,-0.3343 1.99691,-0.8489 2.280328,-1.144 z M 383.78403,1544.9765 c 2.20252,-1.6805 6.77192,-4.326 10.15423,-5.8789 4.2805,-1.965 6.68565,-3.5722 7.91313,-5.287 0.96992,-1.3551 2.27815,-2.9227 2.90719,-3.4837 1.70451,-1.5196 -1.20706,-3.2571 -7.39888,-4.4151 -5.19579,-0.9717 -18.01179,-5.2483 -22.43188,-7.4853 -2.56046,-1.2956 -2.82914,-1.2603 -7.47502,0.9817 -2.8532,1.377 -10.6658,7.9961 -10.6658,9.0367 0,1.4469 6.15841,7.8672 9.64679,10.057 2.18183,1.3697 5.32978,4.3318 6.99544,6.5822 3.52902,4.7679 3.97087,4.7634 10.3548,-0.1076 z m -212.06047,-1.2772 c 1.54609,-0.8971 5.34106,-3.0763 8.43325,-4.842 3.09221,-1.7657 5.74827,-3.4041 5.90236,-3.6405 0.15411,-0.2367 -1.11087,-1.0553 -2.81109,-1.8192 -4.59552,-2.0652 -20.39975,-11.1637 -24.25971,-13.9662 -3.27082,-2.3751 -3.40911,-2.4113 -4.94685,-1.2926 -4.09512,2.9792 -9.44882,7.3174 -11.54582,9.3561 l -2.31499,2.2508 1.82841,2.609 c 2.26778,3.2361 6.16468,5.6314 13.03006,8.0091 5.54264,1.9197 5.86606,2.1551 8.31417,6.0541 l 1.51404,2.4116 2.02253,-1.7494 c 1.11238,-0.9622 3.28753,-2.4837 4.83364,-3.3808 z m 627.55924,1.4033 c 2.77621,-2.6596 3.16662,-2.7772 18.73267,-5.6525 3.98063,-0.7352 7.03026,-1.5524 6.77717,-1.8161 -0.25311,-0.2636 -2.76666,-0.7872 -5.58545,-1.1636 -3.22021,-0.43 -6.48889,-1.3973 -8.79417,-2.6026 -9.70065,-5.0716 -12.6463,-6.4397 -13.86618,-6.4397 -2.43212,0 -7.27554,1.9376 -12.05502,4.8225 -2.60391,1.5718 -5.66098,3.0469 -6.79343,3.2783 -1.13236,0.2312 -2.05288,0.6058 -2.04535,0.832 0.0101,0.2262 4.00949,2.941 8.89316,6.0331 5.62712,3.5626 9.47174,5.5482 10.49677,5.4213 0.88942,-0.1102 2.79735,-1.3309 4.23983,-2.7127 z m -205.09922,-0.4237 c 6.45699,-4.4635 10.91639,-7.8342 10.91639,-8.2508 0,-0.2411 -2.66243,-2.8392 -5.91651,-5.7742 -3.25408,-2.9347 -6.89191,-6.903 -8.08408,-8.8187 -4.03332,-6.4811 -9.07002,-7.1062 -16.38716,-2.0335 -2.09761,1.4542 -6.44412,4.0601 -9.6589,5.7914 -6.68934,3.602 -6.70154,4.2925 -0.12629,7.1436 2.06005,0.8934 6.21633,2.8452 9.23617,4.3372 3.01984,1.4919 6.80606,3.1813 8.41382,3.754 1.60777,0.5728 3.501,1.9292 4.20718,3.0144 2.31758,3.5611 3.29798,3.672 7.39938,0.8366 z m -647.612812,-5.5666 c 6.523157,-3.6693 8.027578,-4.9125 9.18939,-7.595 l 0.970544,-2.2406 -7.758284,-4.9998 c -4.267067,-2.7498 -8.516232,-5.7431 -9.442613,-6.652 -1.613391,-1.5825 -1.797408,-1.6147 -4.368638,-0.7593 -1.476379,0.4913 -6.588793,1.1778 -11.360905,1.5256 -11.834013,0.8624 -20.446795,3.3993 -15.147909,4.4617 0.901875,0.1807 4.459275,0.583 7.90533,0.8943 6.058126,0.5462 17.493163,3.9257 19.2518,5.6891 0.386499,0.3878 0.939629,2.9184 1.22919,5.6239 0.483105,4.5143 1.770619,6.8363 3.790403,6.8363 0.435051,0 3.018819,-1.2529 5.741692,-2.7842 z m 980.263142,-8.5048 c 1.9344,-0.6603 6.32782,-1.1284 12.78579,-1.3625 13.38634,-0.4845 18.17702,-1.9387 29.15046,-8.8473 5.35377,-3.3704 8.67093,-5.98 9.38316,-7.3808 0.60592,-1.1919 2.30368,-3.1108 3.7728,-4.2638 1.469,-1.1535 2.67111,-2.4074 2.67111,-2.7875 0,-0.3799 2.30204,-2.3505 5.11558,-4.3794 5.02709,-3.6248 7.11659,-6.5946 7.16469,-10.1839 0.013,-0.9089 -0.1479,-8.8413 -0.356,-17.628 -0.2611,-11.031 0.021,-18.3081 0.9091,-23.5114 2.9077,-17.0214 3.9959,-28.1372 4.0141,-41.0068 0.021,-15.4393 -1.2389,-20.2531 -6.1715,-23.5654 -3.44942,-2.3163 -9.59795,-3.4753 -15.25285,-2.8753 -2.37874,0.2526 -7.90917,0.4761 -12.28976,0.497 -4.38058,0.021 -11.69724,0.458 -16.25916,0.9711 -4.56183,0.5135 -10.676,0.911 -13.58687,0.8832 -2.91089,-0.025 -8.5406,0.123 -12.51051,0.3349 l -7.2179,0.3851 -3.2197,-2.261 c -3.69103,-2.5922 -4.65028,-2.6692 -22.63676,-1.8186 -6.15477,0.2911 -11.62861,0.2571 -13.58695,-0.084 -1.9675,-0.3428 -4.59174,-0.3578 -6.55914,-0.037 -1.80384,0.294 -7.49631,0.6167 -12.64997,0.7171 -5.15364,0.1005 -14.00208,0.5011 -19.66315,0.8901 -15.13842,1.0402 -21.09761,3.7114 -21.09761,9.4557 0,1.2259 -1.26502,4.7693 -2.81108,7.8745 -1.54616,3.1054 -2.81116,6.105 -2.81116,6.6659 0,0.5611 -2.00288,3.6098 -4.45086,6.775 l -4.45086,5.7549 0.36685,13.5642 c 0.62239,23.0173 0.53975,35.1912 -0.36227,53.3522 -1.42938,28.776 -1.41738,28.9872 1.85659,32.7909 3.78985,4.4022 7.41003,5.7749 19.22201,7.2888 5.41133,0.6934 11.76736,1.6637 14.12468,2.1559 3.93276,0.8211 4.78172,0.7993 10.3073,-0.2662 8.46604,-1.6327 27.72098,-2.2172 34.6009,-1.0507 2.83446,0.4808 9.34267,1.1933 14.46256,1.5835 5.1199,0.3899 11.23402,1.2254 13.58696,1.8561 4.81872,1.2915 9.72543,1.1266 14.44942,-0.4862 z m -828.66723,-2.29 c 10.53626,-0.6901 32.34587,-4.3659 37.14358,-6.2603 3.07182,-1.2131 6.58973,-4.9088 14.54886,-15.2843 l 4.51479,-5.8857 0.039,-14.913 c 0.0269,-10.2303 -0.39312,-16.7108 -1.33733,-20.6399 -1.14769,-4.7758 -1.21705,-8.3813 -0.41751,-21.7026 0.52736,-8.7867 0.96653,-16.2468 0.9759,-16.5786 0.009,-0.3315 -0.46599,-6.164 -1.05641,-12.9613 -1.19798,-13.7917 -2.817,-19.8149 -6.64655,-24.7266 -2.43219,-3.1195 -10.94805,-9.0331 -13.00834,-9.0331 -0.5123,0 -3.25664,0.3898 -6.0985,0.866 -7.91982,1.3271 -46.894505,1.4995 -69.886804,0.3089 -7.876325,-0.4078 -19.898685,-0.4874 -31.859023,-0.2106 -27.2009919,0.6292 -28.999548,0.5958 -33.956095,-0.6289 -3.523816,-0.8704 -7.29301,-1.1072 -18.272088,-1.1488 -12.119758,-0.046 -14.354541,0.1026 -18.049087,1.1975 -5.368597,1.5908 -6.995382,2.8137 -8.712465,6.5485 -4.089629,8.8965 -4.763245,22.0273 -1.561801,30.4443 0.945838,2.4868 1.991965,8.0479 2.324704,12.3584 0.332748,4.3105 1.019008,8.7066 1.525017,9.7696 1.575779,3.3094 -0.587209,20.6955 -3.284637,26.4015 -3.51929,7.4448 -4.296804,13.14 -3.374491,24.7171 1.651732,20.7331 7.293079,25.9126 32.200534,29.5647 3.556823,0.5213 8.072898,1.4753 10.03574,2.1192 1.962832,0.6445 4.216412,1.1715 5.007932,1.1715 0.791539,0 4.0406878,0.5791 7.2203568,1.2872 4.9539475,1.1031 7.133336,1.2393 15.2304722,0.9528 5.197098,-0.1843 10.856356,-0.6624 12.576117,-1.0631 4.641153,-1.0813 14.757723,-0.4384 19.830398,1.2601 5.914081,1.9802 18.216551,2.8736 35.60714,2.5857 7.988185,-0.132 16.42146,-0.3643 18.7406,-0.5162 z m 188.72624,0.01 c 2.52989,-0.4938 6.74931,-0.8977 9.37648,-0.8977 2.62717,0 6.2497,-0.2954 8.05009,-0.6564 1.84989,-0.3708 10.03962,-0.6376 18.83231,-0.613 l 15.55888,0.043 4.34843,-1.8533 c 5.71696,-2.4362 11.11074,-6.4302 16.19438,-11.9916 5.47007,-5.9844 6.19212,-7.9916 5.95989,-16.5677 -0.1079,-3.9848 -0.14994,-11.857 -0.0935,-17.4938 0.52944,-52.8111 0.23548,-73.0826 -1.11179,-76.6661 -0.76948,-2.0469 -1.67976,-4.0138 -2.02283,-4.3708 -1.01743,-1.0592 -3.59971,-0.7484 -7.32878,0.882 -2.78186,1.2158 -4.47374,2.8596 -8.2228,7.9879 -2.59616,3.5509 -5.56655,7.4058 -6.60087,8.5662 -1.03432,1.1604 -2.66035,3.2219 -3.61338,4.5809 -0.95303,1.3586 -2.85744,3.0397 -4.232,3.7353 -1.37456,0.6958 -3.7707,2.2966 -5.32474,3.5577 -1.55404,1.2615 -4.64984,3.2428 -6.87954,4.4033 -11.18457,5.8214 -15.32129,7.8371 -16.08213,7.8371 -0.45918,0 -2.30133,0.7656 -4.09369,1.7014 -1.79237,0.9358 -5.26539,2.3175 -7.71779,3.0705 -8.94213,2.7455 -35.36485,21.5021 -35.36485,25.1043 0,0.4317 -4.45132,3.8558 -9.89186,7.6092 -9.80228,6.7624 -15.03768,11.9231 -18.84825,18.5797 -0.85415,1.4921 -3.12221,4.0692 -5.04016,5.7271 -1.91795,1.6579 -4.35015,4.0994 -5.40489,5.4258 -1.05473,1.3262 -5.2732,4.3689 -9.37438,6.7615 -8.3988,4.8996 -10.44056,7.2949 -7.6189,8.938 1.43085,0.8329 4.04161,1.0624 13.74564,1.2087 7.35277,0.1108 13.76202,0.5374 16.5952,1.1041 3.29984,0.6601 6.64466,0.8227 11.73164,0.5701 6.65909,-0.3302 7.4887,-0.2317 12.92671,1.5345 4.6998,1.5263 7.02553,1.8987 12.16264,1.9473 3.49341,0.034 7.40583,0.2772 8.69425,0.5427 3.56028,0.7334 5.66466,0.6731 10.69051,-0.3079 z m 250.7597,2e-4 c 8.53578,-2.8397 27.38968,-12.4642 32.72054,-16.703 5.96887,-4.7459 7.55294,-8.8129 7.55294,-19.391 0,-4.1405 0.45964,-8.2917 1.02139,-9.2251 1.68349,-2.7973 1.21834,-28.3856 -0.63977,-35.1943 -1.31283,-4.8105 -1.43655,-7.7811 -0.80184,-19.2523 0.41278,-7.4605 0.77238,-14.6497 0.79916,-15.9757 0.0751,-3.7253 -1.93953,-6.102 -6.81178,-8.0357 -2.38864,-0.9483 -5.81882,-2.5702 -7.6226,-3.6044 -6.60809,-3.7891 -15.56814,-8.0184 -19.67764,-9.2879 -3.28348,-1.0145 -6.8268,-1.3976 -16.01114,-1.7322 -12.65724,-0.461 -21.90995,-1.6914 -26.54709,-3.5303 -1.58825,-0.6298 -6.37293,-1.4511 -10.63262,-1.8251 -4.25971,-0.3739 -9.47809,-1.0735 -11.59643,-1.5541 -5.09501,-1.1568 -7.0348,-1.1037 -10.53404,0.2876 -2.36594,0.9409 -5.51072,1.2424 -16.50863,1.5842 -12.22808,0.38 -14.2943,0.2938 -20.67344,-0.8607 -10.30273,-1.8644 -13.92571,-1.688 -24.30301,1.1836 -4.89598,1.3547 -10.22233,3.1068 -11.83632,3.8933 -4.71966,2.3001 -11.53109,6.8905 -13.07559,8.8121 -3.18576,3.9635 -4.99485,25.48 -2.93362,34.8913 1.52835,6.9784 0.88491,25.0709 -1.02446,28.8059 -0.73392,1.4357 -0.74151,2.9763 -0.0268,5.4255 1.26589,4.3375 1.45878,17.9638 0.39882,28.1754 -0.88263,8.5031 0.12137,12.2166 4.20605,15.5579 2.0534,1.6793 15.0224,6.304 21.91736,7.8154 2.48458,0.5445 6.69975,2.0502 9.36702,3.346 2.66726,1.2956 6.92882,3.0363 9.4701,3.868 4.34027,1.4207 5.04673,1.4768 11.64824,0.924 7.6573,-0.641 23.38028,-0.3557 40.29228,0.731 5.92672,0.3808 19.50786,0.7454 30.18031,0.8099 10.67244,0.062 19.70308,0.3094 20.06807,0.5443 1.19095,0.7663 8.81157,0.449 11.61443,-0.4836 z m 91.63402,-3.0702 c 6.40863,-0.9124 15.75017,-1.008 28.28701,-0.2899 7.66201,0.4391 18.52124,-0.1438 33.26455,-1.7864 9.19699,-1.0246 33.76354,0.1718 43.57194,2.1222 8.87387,1.7643 12.90389,1.6898 21.08196,-0.39 3.22173,-0.8197 7.9696,-1.298 15.19239,-1.531 11.37347,-0.3669 14.6811,-1.1356 17.71966,-4.1194 1.4872,-1.4601 1.51911,-2.1276 0.38453,-8.0165 -0.69315,-3.5981 -1.3933,-14.9097 -1.59141,-25.715 -0.19454,-10.6101 -0.43006,-20.7835 -0.52347,-22.607 -0.0936,-1.8237 0.17005,-5.8929 0.58508,-9.0429 0.71062,-5.3903 0.57787,-6.1344 -2.25699,-12.6597 -3.71868,-8.5598 -3.97007,-8.863 -12.12709,-14.6492 -3.83457,-2.7202 -8.05956,-6.5319 -10.02237,-9.0429 -2.67335,-3.4199 -5.28265,-5.4917 -12.29889,-9.7663 -5.65304,-3.4442 -11.41982,-7.7637 -15.78987,-11.8274 -6.20722,-5.7727 -7.4156,-6.5661 -12.28647,-8.0684 -2.97117,-0.9163 -7.51045,-2.3264 -10.08733,-3.133 -4.5407,-1.4214 -5.47902,-1.4747 -30.45338,-1.7275 -14.17264,-0.1431 -26.82251,-0.2836 -28.1109,-0.3114 -1.28849,-0.028 -9.93251,0.1432 -19.2092,0.3804 -14.06791,0.3599 -17.47893,0.6298 -20.55758,1.6276 -3.30182,1.0701 -4.21837,1.1205 -8.69111,0.4766 -4.41821,-0.6362 -5.34099,-0.5918 -7.93005,0.3816 -1.61152,0.6058 -4.34172,2.4198 -6.06712,4.031 -4.59176,4.2878 -4.3027,6.2887 2.09217,14.4836 l 5.22925,6.7008 -0.60332,5.1246 c -0.38312,3.2539 -1.78856,7.5219 -3.85055,11.6935 -5.75979,11.6518 -5.85969,13.5622 -1.19341,22.822 2.43553,4.8335 2.37091,15.5927 -0.14169,23.589 -2.8166,8.9641 -3.90385,18.49 -2.76033,24.1848 0.53262,2.6526 1.36056,6.7528 1.83987,9.1116 1.05917,5.2121 7.96785,14.5799 12.17358,16.5064 6.83049,3.1292 11.45525,3.396 25.13054,1.4482 z m -743.39006,-2.9846 c 3.58955,-1.496 7.7106,-3.6443 9.15789,-4.774 3.22854,-2.5198 10.675761,-5.2895 17.666842,-6.5703 2.88214,-0.5279 6.36928,-1.5315 7.749206,-2.2297 3.089933,-1.5637 5.603473,-4.5616 4.653681,-5.5504 -0.388036,-0.4039 -0.770543,-3.719 -0.85002,-7.3672 -0.2186,-10.0342 -2.848166,-28.5344 -4.561706,-32.0934 -0.835498,-1.735 -2.453521,-3.7948 -3.595654,-4.5769 -2.98992,-2.0467 -17.389129,-4.3717 -34.872609,-5.63 -2.06148,-0.1485 -7.96476,0.3168 -13.11842,1.0336 -5.15367,0.7169 -12.86735,1.5673 -17.1415,1.8896 -7.22008,0.5441 -8.26727,0.4755 -14.7665,-0.9683 -3.84745,-0.855 -8.36202,-1.5638 -10.0324,-1.5757 -1.67038,-0.012 -5.35621,-0.3725 -8.19073,-0.8016 -3.49124,-0.5284 -10.78601,-0.7285 -22.61446,-0.6199 -14.78887,0.1357 -18.49062,0.3615 -24.19059,1.4753 -6.65032,1.2995 -6.7819,1.366 -11.14099,5.6151 -2.42616,2.3648 -5.99398,4.9604 -7.92848,5.7679 -2.9743,1.2416 -3.79145,2.079 -5.2935,5.4257 -2.1258,4.7362 -3.16081,15.5626 -1.84372,19.2856 0.51916,1.4674 1.28655,6.2695 1.70532,10.6711 0.75676,7.9548 0.7851,8.029 4.66811,12.234 4.59702,4.9783 8.03435,6.8195 15.22398,8.1546 5.64964,1.0491 4.89296,1.1259 16.27571,-1.6526 7.27771,-1.7764 15.97508,-3.1316 19.76557,-3.0797 2.60047,0.034 6.67503,0.9763 12.64993,2.9207 4.84759,1.5771 11.34381,3.2726 14.436,3.7671 6.18915,0.9893 22.22679,1.7691 38.88676,1.8904 l 10.77585,0.079 6.52643,-2.7195 z m 294.45935,-9.3913 c 7.26381,-1.7221 23.69516,-7.949 23.69516,-8.9797 0,-0.2507 1.83833,-1.7736 4.08517,-3.3845 2.24685,-1.6106 5.601,-4.9632 7.45369,-7.45 1.85267,-2.4868 4.19429,-5.4708 5.20356,-6.6313 1.0093,-1.1606 2.79528,-3.5453 3.96886,-5.2997 1.29949,-1.9427 3.97991,-4.3 6.85536,-6.0286 5.4626,-3.2843 11.44975,-8.0598 18.69511,-14.9111 2.814,-2.6613 7.78744,-6.4594 11.05206,-8.4405 3.26465,-1.9812 8.04404,-5.3243 10.62087,-7.4291 2.57684,-2.105 5.71224,-4.6457 6.96758,-5.6458 1.25534,-1 4.1219,-2.3254 6.37014,-2.9454 2.24821,-0.6201 5.85943,-1.908 8.02489,-2.8623 2.16545,-0.9543 5.62386,-2.2861 7.68534,-2.9598 5.11072,-1.6697 14.40723,-7.5158 18.92614,-11.9016 2.04982,-1.9894 6.11453,-6.4943 9.03268,-10.0104 5.26609,-6.3455 5.30534,-6.4312 5.25284,-11.4543 -0.0625,-5.9765 -1.34649,-8.718 -4.87109,-10.3991 l -2.58141,-1.2315 -7.00339,1.3257 c -8.63077,1.6337 -10.40209,1.6444 -16.49566,0.1 -4.36608,-1.1072 -5.4869,-1.1594 -11.5133,-0.5374 -14.39791,1.4865 -13.59536,1.5475 -24.37733,-1.8489 -9.75919,-3.0739 -9.98607,-3.1122 -14.65827,-2.4674 -5.85582,0.8079 -15.95951,0.8446 -22.2204,0.081 -3.70245,-0.4518 -6.57338,-0.3215 -13.48058,0.612 -4.82692,0.6524 -12.36037,1.4284 -16.74098,1.7244 -12.9567,0.8754 -21.3642,3.4256 -25.24449,7.6567 -2.02487,2.208 -6.19802,8.6724 -7.64182,11.8378 -2.04106,4.4742 -2.64686,16.5361 -1.58173,31.4926 0.59031,8.2893 1.05479,16.4278 1.03217,18.0855 -0.0226,1.658 0.59778,7.0492 1.37866,11.9806 1.14359,7.2222 1.22622,10.6229 0.42473,17.4828 -0.54727,4.6841 -0.98638,9.6015 -0.97578,10.9278 0.0106,1.3262 -0.16878,5.26 -0.39862,8.7415 -0.44515,6.7425 0.13902,9.1347 2.67025,10.9343 2.02548,1.4398 3.74175,1.4132 10.38959,-0.1629 z m -256.215638,-67.4129 c 3.790219,-0.5063 5.710008,-1.1029 6.535148,-2.0303 0.853603,-0.9596 1.153266,-5.455 1.112268,-16.6861 -0.08011,-21.9317 -0.559624,-22.8035 -19.331854,-35.1286 -10.25254,-6.7313 -13.198254,-8.3236 -16.558894,-8.951 -5.04008,-0.9407 -8.26711,-0.018 -10.49223,3.0002 -0.80392,1.0904 -2.06889,2.2295 -2.81109,2.532 -2.43439,0.9909 -7.84573,0.5945 -12.18948,-0.8932 -5.35919,-1.8354 -14.38333,-3.3619 -19.87609,-3.3619 -3.63166,0 -4.67703,0.3101 -7.62377,2.2607 -6.49946,4.3026 -7.36162,6.2892 -6.94498,16.0015 l 0.36739,8.5647 3.9524,5.4808 c 2.17383,3.0149 3.9524,5.844 3.9524,6.2877 0,2.2055 6.9842,14.6068 9.58419,17.0179 2.27392,2.1085 4.00469,2.0903 14.31009,-0.1509 7.21663,-1.5694 9.65998,-1.8085 18.47795,-1.8085 12.0634,0 14.73428,0.5821 21.59,4.7048 5.398265,3.246 8.153479,4.4181 9.618693,4.0912 0.528601,-0.1179 3.376125,-0.5371 6.327859,-0.931 z m -93.966652,-4.5934 c 0.9886,-0.6427 2.36455,-2.9833 3.08038,-5.2395 1.20546,-3.8002 1.15295,-4.417 -0.77002,-9.043 -1.13504,-2.7306 -3.33683,-6.7281 -4.89283,-8.8832 -3.1885,-4.4164 -5.46809,-12.6489 -6.39517,-23.0958 -0.4913,-5.5363 -0.89058,-6.7509 -2.65232,-8.0689 -1.41836,-1.0606 -2.94373,-1.5291 -4.82535,-1.4819 -1.51326,0.039 -7.88522,0.2382 -14.15992,0.4446 -10.94363,0.3597 -11.59277,0.3132 -15.92952,-1.1438 -6.05998,-2.036 -22.20047,-2.7461 -27.26519,-1.2 -4.08317,1.2467 -9.96003,5.9775 -13.70732,11.0346 l -2.90372,3.9185 -0.0863,16.5502 c -0.0843,16.157 -0.0386,16.5812 1.92382,17.8438 2.28529,1.4701 10.97399,2.3633 17.00751,1.748 2.90543,-0.2964 4.87779,0.01 9.73441,1.4862 4.95436,1.5109 7.28506,1.8577 12.49251,1.8583 4.53299,2e-4 8.49931,0.4725 13.58694,1.6175 10.62001,2.3903 17.51458,3.1759 26.20246,2.9861 6.20035,-0.1358 8.13445,-0.4049 9.55966,-1.3317 z m 955.20181,-29.2498 c 1.37092,-0.694 3.08124,-2.168 3.80071,-3.2758 0.71946,-1.1078 2.58663,-2.4398 4.14916,-2.9594 2.12444,-0.7069 3.80884,-2.2559 6.67846,-6.1419 3.68759,-4.9936 3.81535,-5.3646 3.26808,-9.4941 -0.6913,-5.215 -2.15798,-9.7834 -3.82064,-11.9 -1.39938,-1.7813 -10.76195,-4.9244 -13.81119,-4.6363 -1.11467,0.1053 -4.31525,2.1905 -7.60264,4.9532 -7.65724,6.4352 -9.75931,7.3982 -14.22205,6.5171 -4.40268,-0.8694 -7.71152,0.1335 -10.1835,3.0867 -1.55978,1.8635 -1.62544,2.3839 -0.56139,4.4583 2.59162,5.0523 7.03007,9.4573 11.69427,11.607 2.52249,1.1625 7.30869,3.6736 10.63613,5.58 3.32734,1.9067 6.372,3.4664 6.76598,3.4664 0.39378,0 1.83779,-0.5675 3.20862,-1.2612 z m -208.79528,-19.6879 c 0.31012,-0.9118 0.95065,-2.4443 1.4234,-3.4055 1.99366,-4.054 -0.42054,-7.5545 -7.31894,-10.613 -3.9655,-1.7579 -6.02815,-1.3427 -12.39289,2.495 l -5.1104,3.0814 2.92679,1.5836 c 1.60973,0.8709 4.92366,2.6685 7.36433,3.9951 4.73252,2.5714 9.50307,4.4545 11.39045,4.496 0.63439,0.015 1.40716,-0.7209 1.71726,-1.6326 z m -645.292369,-4.9574 c 0.685841,-2.7913 1.386234,-3.5516 5.507615,-5.978 5.857816,-3.4487 10.110067,-8.2526 9.252036,-10.4518 -0.787578,-2.0188 -7.769438,-7.7008 -9.462577,-7.7008 -3.00999,0 -9.846049,2.452 -12.042335,4.3193 -2.78736,2.3699 -4.071973,5.2619 -4.931464,11.1028 -0.498991,3.3909 -0.306468,4.6696 0.935852,6.2153 2.279414,2.8359 8.16354,6.8437 9.132438,6.2204 0.452474,-0.2911 1.176266,-1.9686 1.608435,-3.7272 z m 419.782249,2.2442 1.96331,-1.9594 -2.39565,-1.3584 c -1.82552,-1.0351 -2.80215,-1.2183 -4.10364,-0.7701 -2.46506,0.8486 -2.83441,1.932 -1.40472,4.1194 1.60431,2.4548 3.45907,2.4449 5.9407,-0.033 z m -181.94037,-4.5215 c 5.85113,-3.8935 12.43268,-9.0629 12.43268,-9.7646 0,-0.2549 -2.52667,-1.4665 -5.61482,-2.6928 -6.43963,-2.5573 -10.04175,-5.283 -10.8896,-8.2405 -0.73004,-2.5466 -2.80798,-4.7726 -4.45513,-4.7726 -1.92663,0 -4.06905,1.8759 -5.16376,4.5213 -0.54882,1.3264 -2.85946,4.4126 -5.13475,6.8585 l -4.13688,4.447 2.3833,3.3901 c 1.3108,1.8646 2.95474,3.9326 3.65313,4.5958 1.65837,1.5746 8.85814,5.09 10.46459,5.1091 0.68873,0.011 3.59628,-1.5449 6.46124,-3.4513 z m 215.81147,0.055 c 4.12237,-2.3961 3.7735,-3.174 -1.44879,-3.2312 -7.17374,-0.079 -16.02847,-6.0496 -19.64724,-13.2504 -0.91646,-1.8238 -2.0196,-3.5627 -2.45138,-3.865 -0.9458,-0.6613 -12.58055,6.8067 -13.49632,8.6632 -0.81323,1.6483 0.49944,2.6407 6.9749,5.2721 2.85684,1.1609 6.73524,3.0621 8.61862,4.2246 3.31584,2.0472 11.23959,4.2647 15.54782,4.3513 1.17621,0.023 3.7815,-0.932 5.90239,-2.1646 z m 252.75282,-9.9146 c 14.422,-0.5646 19.76787,-0.5509 26.47998,0.068 5.69542,0.5251 11.35578,0.6238 17.53709,0.3052 5.01988,-0.2586 17.13883,-0.4155 26.93077,-0.3486 20.43132,0.1395 36.72282,-0.6594 42.70845,-2.0938 2.27864,-0.5463 6.15873,-1.3616 8.62238,-1.812 5.66026,-1.0346 16.7783,-7.2077 18.7647,-10.4184 1.6292,-2.6336 3.24419,-7.4786 4.38559,-13.1572 0.45651,-2.271 1.5863,-6.9772 2.5108,-10.4587 2.13776,-8.0507 2.3499,-28.7005 0.389,-37.8617 -1.19862,-5.5999 -1.16823,-6.9711 0.30831,-13.9213 1.52675,-7.1863 1.53905,-8.5036 0.18012,-19.4093 -0.80181,-6.435 -1.37509,-15.8016 -1.27406,-20.8147 0.18164,-9.0112 0.15462,-9.1431 -2.37765,-11.605 -1.40883,-1.3696 -2.93975,-2.49 -3.40215,-2.49 -0.46239,0 -3.16755,-1.9893 -6.01144,-4.4201 -4.3424,-3.7121 -6.0694,-4.6795 -10.7826,-6.0404 -3.08664,-0.8912 -8.49257,-2.037 -12.01315,-2.5461 -3.52067,-0.5094 -10.82864,-1.5753 -16.23997,-2.3688 -5.41132,-0.7935 -16.79628,-2.0334 -25.29983,-2.7559 -18.21854,-1.5475 -27.43231,-1.3636 -47.32001,0.945 -10.99057,1.2757 -14.86629,1.4675 -23.89424,1.1827 -5.92675,-0.187 -13.60847,-0.782 -17.07052,-1.3223 -5.41502,-0.8447 -7.47767,-0.8807 -14.7603,-0.2569 -11.59345,0.993 -16.81053,2.3196 -19.11759,4.861 l -1.8447,2.0323 2.57356,9.1341 c 2.17806,7.7302 2.47365,10.0107 1.9234,14.8395 -0.4792,4.2057 -0.2605,6.9737 0.83188,10.5284 2.43929,7.9382 1.88711,28.2584 -1.17127,43.1039 -1.14187,5.5426 0.13683,19.0037 2.75803,29.034 1.02087,3.9067 1.82804,9.7992 1.81674,13.263 -0.0181,5.5358 -0.38084,6.894 -3.24406,12.1455 -1.77306,3.252 -4.42882,6.9145 -5.9017,8.1387 -4.3391,3.6061 -6.76343,6.4881 -6.76343,8.0402 0,1.8921 4.71118,5.1824 8.10933,5.6641 1.46659,0.2078 3.29903,0.5253 4.07206,0.706 1.75614,0.4102 22.9001,1.1786 26.70537,0.9707 1.5461,-0.084 10.94259,-0.472 20.88111,-0.8612 z m 216.65602,-1.2916 c 4.89598,-0.3739 15.22674,-0.7026 22.95725,-0.7308 7.73053,-0.025 17.85038,-0.4505 22.48868,-0.9396 12.14538,-1.2812 41.30769,-1.1599 48.40135,0.2013 9.14127,1.7539 29.06336,0.8933 34.33721,-1.4834 2.78675,-1.2555 16.01092,-12.364 17.83682,-14.9829 1.2267,-1.7591 1.4468,-4.6657 1.3242,-17.4827 -0.2229,-23.3122 -1.1373,-37.8563 -2.6365,-41.9365 -0.7388,-2.0108 -1.3433,-4.7738 -1.3433,-6.1401 0,-1.3664 -0.4579,-3.2481 -1.0174,-4.1815 -1.7946,-2.9941 -1.1535,-18.4721 1.0068,-24.3042 6.8049,-18.3711 6.0943,-27.7544 -2.9262,-38.6428 -3.08244,-3.7209 -8.22119,-7.0258 -11.58729,-7.4521 -1.03071,-0.1304 -7.35571,-0.8095 -14.05545,-1.5083 -10.92528,-1.1398 -12.6645,-1.1847 -16.86647,-0.4339 -21.23945,3.7952 -35.60339,5.8409 -40.99825,5.8393 -2.4497,0 -10.46138,-1.0639 -17.80351,-2.3615 -16.47518,-2.9125 -31.36739,-4.7952 -45.69699,-5.7779 -14.96297,-1.026 -37.38282,6.3338 -43.69017,14.3415 -5.48562,6.9644 -5.29889,5.6569 -5.08533,35.6175 0.19658,27.5747 0.204,27.6692 2.55187,32.8554 3.18483,7.0346 4.29919,12.9474 4.73027,25.1001 0.31899,8.9915 0.11619,10.8836 -1.64811,15.3727 -1.56121,3.9725 -2.11956,7.6317 -2.49231,16.3337 -0.55082,12.8575 -0.28541,13.5524 7.15775,18.7415 6.37219,4.4425 11.49779,5.4508 25.37749,4.9915 5.92668,-0.1958 14.78163,-0.6623 19.67759,-1.0363 z m 74.62029,-16.1707 c -2.81734,-1.4255 -3.33342,-4.1696 -1.01688,-5.4068 1.15714,-0.6177 2.65429,-0.6328 7.37011,-0.073 3.25477,0.3859 6.91301,0.7017 8.12915,0.7017 3.53033,0 14.8615,-3.1056 17.82115,-4.8844 2.36588,-1.4219 2.70871,-2.0571 2.70871,-5.0181 0,-1.9827 0.83087,-4.8236 2.00087,-6.8417 1.1004,-1.8982 2.78853,-6.3001 3.7511,-9.7814 0.96266,-3.4812 2.17063,-7.1164 2.68427,-8.0778 0.51366,-0.9612 0.93406,-3.0093 0.93406,-4.5515 0,-3.0807 1.18021,-4.2505 4.28938,-4.2505 4.58401,0 5.57325,3.5995 3.3963,12.3587 -0.65917,2.652 -1.59332,6.4503 -2.07582,8.4399 -1.62107,6.6844 -2.75515,9.417 -5.08463,12.2517 -1.27424,1.5507 -3.41391,4.4464 -4.75475,6.4346 -2.6209,3.8868 -5.60352,6.332 -7.72393,6.332 -0.72556,0 -4.20148,0.814 -7.72423,1.8083 -5.45927,1.5416 -7.57325,1.8086 -14.3204,1.8086 -6.58917,0 -8.32927,-0.2093 -10.38446,-1.2494 z m -120.23057,-59.3954 c -0.31572,-0.5294 -0.30313,-3.5812 0.0285,-6.7821 0.55987,-5.4128 2.01567,-9.7137 9.72454,-28.728 2.02615,-4.9978 2.45683,-7.4365 2.51862,-14.2611 0.0752,-8.2287 0.0762,-8.2329 2.90266,-10.4811 2.54902,-2.027 7.85108,-4.3429 18.72363,-8.1777 5.22033,-1.8414 14.7797,-2.2031 19.20921,-0.727 2.53042,0.8432 3.34462,1.5223 3.56407,2.9734 0.32274,2.1335 -1.13175,2.618 -7.90179,2.6325 -3.52047,0.012 -7.18062,0.8519 -18.86706,4.3527 -2.67334,0.801 -4.75112,2.0264 -6.27837,3.7032 -2.18777,2.4015 -2.25985,2.8194 -1.73097,10.0399 0.56263,7.6806 -0.36938,12.2069 -3.80183,18.4638 -0.75128,1.3694 -1.85639,4.6248 -2.45581,7.2341 -1.4924,6.497 -3.32775,10.5508 -7.26538,16.0477 -2.80142,3.9106 -3.70954,4.6722 -5.57121,4.6722 -1.22334,0 -2.48245,-0.4332 -2.79827,-0.9625 z m -255.27077,74.2402 c 1.5042,-0.5003 4.62978,-2.7466 6.94572,-4.992 6.21502,-6.025 15.53864,-17.0147 16.62812,-19.5992 0.65398,-1.5516 0.61047,-5.4989 -0.13955,-12.6601 -1.09585,-10.4626 -1.29007,-36.8056 -0.54343,-73.7047 0.32092,-15.8597 0.12376,-20.8089 -0.97209,-24.4038 -1.67313,-5.4884 -1.97213,-5.8745 -8.64548,-11.1645 -2.92792,-2.321 -6.28532,-5.241 -7.46088,-6.4882 -1.17557,-1.2477 -3.0111,-2.5694 -4.07896,-2.9371 -6.0723,-2.0905 -34.29292,-4.0208 -62.07751,-4.2457 -18.19924,-0.1473 -18.95715,-0.1046 -26.23684,1.4768 -5.99935,1.3037 -9.23773,1.6304 -16.21736,1.6365 -4.7966,0 -10.48906,-0.2417 -12.64991,-0.5466 -11.4554,-1.6162 -15.8174,-1.9919 -25.11219,-2.163 -9.65001,-0.1779 -10.56732,-0.085 -17.45813,1.7406 -6.56773,1.7411 -7.71614,2.3059 -11.84355,5.8229 -2.51384,2.1426 -5.99625,5.8036 -7.73868,8.1359 l -3.16808,4.2408 0.90865,11.735 c 1.42069,18.3474 2.85688,28.9031 4.46743,32.8345 1.16653,2.8474 1.54985,7.7858 1.80161,23.2099 0.40919,25.0699 -0.56377,35.6868 -4.54212,49.5643 -0.54338,1.8954 -1.03875,5.8292 -1.10081,8.7416 -0.0973,4.5658 0.23064,5.7664 2.38164,8.7185 3.69073,5.0653 5.25753,5.428 21.32016,4.9347 7.19209,-0.2211 13.62514,-0.62 14.29566,-0.8866 0.99661,-0.3961 0.98411,-0.8471 -0.0685,-2.4709 -0.70819,-1.0926 -1.57023,-4.0374 -1.91566,-6.5439 -0.46006,-3.3385 -1.32459,-5.3542 -3.23206,-7.5357 -3.14268,-3.5945 -6.60206,-9.3633 -7.51381,-12.5305 -0.89975,-3.1253 1.4962,-7.856 5.87986,-11.6094 4.8885,-4.1857 8.12898,-5.0695 18.40245,-5.0191 9.84592,0.049 10.36917,0.1541 15.28812,3.0906 4.76333,2.8434 8.60615,9.7372 8.60615,15.4388 0,4.0351 -3.55771,10.5764 -7.54777,13.8778 -3.05447,2.5272 -9.98016,9.9116 -10.66413,11.3703 -1.03343,2.204 2.00249,2.7044 15.22933,2.5091 13.10852,-0.1934 27.56537,-0.019 50.3026,0.6042 8.24585,0.226 24.15954,0.4828 35.36377,0.5697 16.6848,0.1297 20.86622,-0.01 23.10622,-0.7515 z m -662.85443,-0.6469 c 9.31219,-0.5092 11.593778,-1.1137 20.252254,-5.3662 13.412837,-6.5878 21.14884,-16.5386 20.08312,-25.8331 -0.274716,-2.3959 -0.708802,-14.8131 -0.964635,-27.5939 -0.255833,-12.7807 -0.925778,-26.0735 -1.488769,-29.5394 -0.668758,-4.1177 -0.757735,-9.9599 -0.25664,-16.8524 0.421842,-5.8024 0.670305,-13.2628 0.552148,-16.5785 -0.118139,-3.3155 0.348828,-8.0631 1.037725,-10.5495 1.066889,-3.8515 1.053436,-4.9614 -0.09072,-7.4892 -1.877642,-4.148 -3.450998,-5.4743 -9.98639,-8.4192 -8.060053,-3.6318 -16.282718,-6.0564 -28.200993,-8.3153 l -10.30732,-1.9534 -30.45348,-0.043 c -19.8757,-0.027 -33.21998,0.2198 -38.41824,0.7128 -13.71888,1.3008 -28.58636,1.2659 -35.7179,-0.084 -5.30235,-1.0038 -6.7505,-1.068 -9.98863,-0.4439 -10.9048,2.102 -18.77862,8.7603 -20.72899,17.5286 -1.72213,7.7421 -2.79358,25.2954 -1.97269,32.3179 0.42635,3.6475 1.25332,10.8364 1.83774,15.9756 0.58441,5.1394 1.46825,10.5652 1.96409,12.0572 1.68506,5.0706 3.77483,33.0216 2.76741,37.0146 -0.51034,2.0229 -0.93828,5.0343 -0.95099,6.6921 -0.0128,1.6577 -0.85172,5.0489 -1.86449,7.5358 -3.61519,8.8769 -3.98406,10.5265 -3.5214,15.7467 0.32421,3.6585 1.07777,6.0643 2.4852,7.935 3.63117,4.8259 3.31182,4.7592 24.66301,5.142 25.63306,0.4592 26.48628,0.4503 33.9999,-0.3521 11.36158,-1.2134 29.60616,-1.8753 36.07568,-1.3087 3.34988,0.2934 10.72899,0.8234 16.39803,1.1781 5.66902,0.3545 13.04813,0.8643 16.39802,1.1333 3.34989,0.2686 6.72319,0.4147 7.49624,0.3246 0.77305,-0.09 4.77885,-0.3481 8.90179,-0.5734 z m 183.910513,-0.017 c 1.909617,-0.5133 7.272286,-1.182 11.917042,-1.4862 4.644756,-0.3039 10.974985,-0.9593 14.067195,-1.4564 7.37763,-1.1862 20.63404,-1.208 25.76833,-0.045 5.46543,1.2407 7.77447,1.1368 10.04502,-0.4522 2.71383,-1.8989 9.82429,-11.2794 12.90956,-17.0305 l 2.58716,-4.8229 -0.54483,-13.8654 c -1.29586,-32.9784 -2.66497,-55.5907 -3.46758,-57.2713 -0.4751,-0.9945 -1.09286,-10.3538 -1.37281,-20.798 -0.54183,-20.2157 -1.32213,-25.1111 -4.54616,-28.5215 -2.63056,-2.7832 -15.46506,-10.2842 -20.32504,-11.8793 -5.20448,-1.7085 -33.918365,-2.6729 -39.794257,-1.3371 -9.209879,2.094 -10.423504,2.1965 -15.942692,1.3447 -4.429775,-0.6838 -6.481311,-0.6921 -12.033808,-0.049 -3.681483,0.4264 -14.916051,0.913 -24.965701,1.0806 l -18.272088,0.3051 -7.4962419,-1.771 c -7.1033365,-1.6778 -7.9382697,-1.7448 -15.9295111,-1.2738 -14.746111,0.8688 -20.608074,2.35 -26.23005,6.627 -4.947184,3.7638 -7.478214,8.243 -13.572258,24.0195 -5.331765,13.8029 -5.802509,17.8991 -2.771133,24.1141 3.825639,7.8432 5.659548,17.4729 5.672163,29.7836 0.0058,6.3315 -0.458859,14.2245 -1.034095,17.5404 -0.575256,3.3155 -1.393592,9.1481 -1.818539,12.9612 -0.424956,3.813 -1.504391,10.2616 -2.398758,14.3304 -1.955542,8.8963 -1.540076,11.1529 3.219042,17.4843 6.03458,8.0286 11.849265,9.7582 32.842922,9.7696 11.6171164,0.01 29.154557,0.7467 43.571912,1.8393 6.905936,0.5232 29.740139,1.4536 41.493673,1.6906 2.722231,0.056 6.511925,-0.3202 8.421533,-0.8335 z M -32.788754,1276.793 c -1.183548,-1.7266 -1.559651,-4.1901 -1.591986,-10.4269 -0.04147,-7.9875 0.02297,-8.2513 2.941679,-12.0571 1.641209,-2.1398 3.939183,-5.6542 5.106612,-7.8094 1.635904,-3.02 3.619878,-4.9865 8.652855,-8.5759 7.127974,-5.0839 8.916737,-5.6666 21.873549,-7.1253 6.365606,-0.7164 7.072919,-0.6799 12.181382,0.6281 3.196158,0.8182 8.501886,1.5371 12.91963,1.7501 7.209777,0.348 7.496242,0.4189 7.496242,1.8606 0,2.6723 -3.795554,3.3128 -20.221898,3.4129 -13.6700051,0.084 -14.8932567,0.1866 -19.209117,1.6238 -2.5351766,0.8442 -7.210585,3.1696 -10.389796,5.1674 -5.199433,3.2676 -6.082393,4.1949 -8.785166,9.2277 -2.891813,5.3845 -3.003984,5.9515 -2.983972,15.0896 l 0.02083,9.495 -3.230567,0 c -2.832952,0 -3.421329,-0.2783 -4.78024,-2.2606 z m 364.275934,93.9377 c 6.97183,-1.6809 7.07762,-1.7393 13.30028,-7.3495 3.44992,-3.1103 8.16233,-7.1003 10.47206,-8.8664 2.30971,-1.766 5.17951,-4.4788 6.37734,-6.0285 2.40775,-3.1149 2.26803,0.028 1.82669,-41.0987 -0.0943,-8.7866 -0.10834,-21.2655 -0.0313,-27.7313 0.17587,-14.7464 -1.44805,-38.8036 -2.80761,-41.5928 -0.56467,-1.1583 -1.02666,-3.5454 -1.02666,-5.3048 0,-6.7327 -6.44533,-10.4263 -21.84722,-12.5195 -7.68708,-1.0447 -14.4404,-1.1029 -21.54156,-0.1854 -6.82171,0.8815 -20.03919,-0.5697 -27.68998,-3.0399 -4.73507,-1.5289 -16.92001,-3.5281 -28.06448,-4.6046 -3.372,-0.3257 -4.6032,-0.1406 -7.49624,1.1274 -3.39273,1.4872 -3.76901,1.5144 -18.92256,1.3727 -10.1631,-0.096 -16.20274,-0.4024 -17.62561,-0.8963 -1.44472,-0.5017 -6.52133,-0.7438 -15.26483,-0.7286 -10.71504,0.02 -13.82305,0.2291 -17.07013,1.1534 -5.98038,1.7018 -11.41741,6.2864 -14.71359,12.4068 -4.91148,9.1195 -6.05945,14.7886 -6.17759,30.5063 -0.39582,52.6527 -0.30757,63.2112 0.54663,65.4094 0.51542,1.3264 1.19503,6.4806 1.51025,11.4542 0.45497,7.1785 1.06424,10.099 2.95547,14.1669 3.54344,7.6216 4.12368,8.4918 7.12983,10.6948 3.30563,2.4222 15.1501,7.6404 21.80358,9.6057 6.42456,1.8978 18.23379,2.8229 25.86535,2.0262 7.54839,-0.7883 29.52368,-0.8025 36.28404,-0.024 6.08905,0.7016 33.27101,1.5748 52.06158,1.6727 12.22691,0.063 13.59603,-0.048 20.14616,-1.6264 z m 94.61381,-11.7625 c 0.75864,-0.6833 2.91592,-2.3276 4.79398,-3.6537 4.16691,-2.9427 6.11744,-5.3216 7.41317,-9.0415 1.47963,-4.2477 0.47689,-6.2448 -5.0798,-10.1169 -4.17304,-2.9078 -5.4487,-3.4464 -8.13352,-3.4354 -4.27596,0.019 -10.36691,1.8699 -12.86244,3.9109 -3.94375,3.2255 -1.83448,10.6581 4.75097,16.741 0.99745,0.9212 2.24172,2.6845 2.76504,3.9183 1.6815,3.9647 3.33051,4.4001 6.3526,1.6773 z"
       id="path3942"
       inkscape:connector-curvature="0"
       inkscape:export-filename="/home/chm/Dropbox/git/pflaster/theme/img/PPFLASTERlogo.png"
       inkscape:export-xdpi="90"
       inkscape:export-ydpi="90" />
    <text
       xml:space="preserve"
       style="font-size:91.59101105px;font-style:normal;font-variant:normal;font-weight:bold;font-stretch:normal;line-height:125%;letter-spacing:0px;word-spacing:0px;fill:#131313;fill-opacity:1;stroke:none;font-family:GNUTypewriter;-inkscape-font-specification:GNUTypewriter Bold"
       x="-278.68692"
       y="1169.1261"
       id="text3944"
       sodipodi:linespacing="125%"
       transform="scale(0.99363171,1.0064091)"
       inkscape:export-filename="/home/chm/Dropbox/git/pflaster/theme/img/PPFLASTERlogo.png"
       inkscape:export-xdpi="90"
       inkscape:export-ydpi="90"><tspan
         sodipodi:role="line"
         id="tspan3946"
         x="-278.68692"
         y="1169.1261"
         style="font-size:117.19683838px;font-style:normal;font-weight:normal;fill:#131313;fill-opacity:1;-inkscape-font-specification:GNUTypewriter">pflasterpodcast.at</tspan></text>
    <text
       xml:space="preserve"
       style="font-size:249.38716125px;font-style:normal;font-variant:normal;font-weight:bold;font-stretch:normal;line-height:125%;letter-spacing:0px;word-spacing:0px;fill:#131313;fill-opacity:1;stroke:none;font-family:Banana Brick;-inkscape-font-specification:Banana Brick Bold"
       x="-290.17444"
       y="1042.9012"
       id="text4002"
       sodipodi:linespacing="125%"
       transform="scale(0.96568851,1.0355306)"
       inkscape:export-filename="/home/chm/Dropbox/git/pflaster/theme/img/PPFLASTERlogo.png"
       inkscape:export-xdpi="90"
       inkscape:export-ydpi="90"><tspan
         sodipodi:role="line"
         id="tspan4004"
         x="-290.17444"
         y="1042.9012"
         style="font-weight:bold;-inkscape-font-specification:Banana Brick Bold">PFLASTER</tspan></text>
    <text
       xml:space="preserve"
       style="font-size:112.78081512px;font-style:normal;font-variant:normal;font-weight:normal;font-stretch:normal;text-align:start;line-height:82.99999833%;letter-spacing:0px;word-spacing:0px;text-anchor:start;fill:#131313;fill-opacity:1;stroke:none;font-family:GNUTypewriter;-inkscape-font-specification:GNUTypewriter"
       x="-285.33493"
       y="2082.6975"
       id="text4006"
       sodipodi:linespacing="82.999998%"
       transform="scale(0.98327364,1.0170109)"
       inkscape:export-filename="/home/chm/Dropbox/git/pflaster/theme/img/PPFLASTERlogo.png"
       inkscape:export-xdpi="90"
       inkscape:export-ydpi="90"><tspan
         sodipodi:role="line"
         x="-285.33493"
         y="2082.6975"
         id="tspan4010"
         style="text-align:start;line-height:82.99999833%;text-anchor:start;fill:#131313;fill-opacity:1">.podcast zur entbl</tspan><tspan
         sodipodi:role="line"
         x="-285.33493"
         y="2176.3057"
         style="text-align:start;line-height:82.99999833%;text-anchor:start;fill:#131313;fill-opacity:1"
         id="tspan3761">dung mitteleuropas.</tspan></text>
  </g>
</svg>
